<?xml version="1.0" standalone="no"?>
<!DOCTYPE svg PUBLIC "-//W3C//DTD SVG 1.1//EN" "http://www.w3.org/Graphics/SVG/1.1/DTD/svg11.dtd">
<svg version="1.1" width="1200" height="566" onload="init(evt)" viewBox="0 0 1200 566" xmlns="http://www.w3.org/2000/svg" xmlns:xlink="http://www.w3.org/1999/xlink">
<!-- Flame graph stack visualization. See https://github.com/brendangregg/FlameGraph for latest version, and http://www.brendangregg.com/flamegraphs.html for examples. -->
<!-- NOTES:  -->
<defs>
	<linearGradient id="background" y1="0" y2="1" x1="0" x2="0" >
		<stop stop-color="#eeeeee" offset="5%" />
		<stop stop-color="#eeeeb0" offset="95%" />
	</linearGradient>
</defs>
<style type="text/css">
	text { font-family:Verdana; font-size:12px; fill:rgb(0,0,0); }
	#search, #ignorecase { opacity:0.1; cursor:pointer; }
	#search:hover, #search.show, #ignorecase:hover, #ignorecase.show { opacity:1; }
	#subtitle { text-anchor:middle; font-color:rgb(160,160,160); }
	#title { text-anchor:middle; font-size:17px}
	#unzoom { cursor:pointer; }
	#frames > *:hover { stroke:black; stroke-width:0.5; cursor:pointer; }
	.hide { display:none; }
	.parent { opacity:0.5; }
</style>
<script type="text/ecmascript">
<![CDATA[
	"use strict";
	var details, searchbtn, unzoombtn, matchedtxt, svg, searching, currentSearchTerm, ignorecase, ignorecaseBtn;
	function init(evt) {
		details = document.getElementById("details").firstChild;
		searchbtn = document.getElementById("search");
		ignorecaseBtn = document.getElementById("ignorecase");
		unzoombtn = document.getElementById("unzoom");
		matchedtxt = document.getElementById("matched");
		svg = document.getElementsByTagName("svg")[0];
		searching = 0;
		currentSearchTerm = null;

		// use GET parameters to restore a flamegraphs state.
		var params = get_params();
		if (params.x && params.y)
			zoom(find_group(document.querySelector('[x="' + params.x + '"][y="' + params.y + '"]')));
                if (params.s) search(params.s);
	}

	// event listeners
	window.addEventListener("click", function(e) {
		var target = find_group(e.target);
		if (target) {
			if (target.nodeName == "a") {
				if (e.ctrlKey === false) return;
				e.preventDefault();
			}
			if (target.classList.contains("parent")) unzoom(true);
			zoom(target);
			if (!document.querySelector('.parent')) {
				// we have basically done a clearzoom so clear the url
				var params = get_params();
				if (params.x) delete params.x;
				if (params.y) delete params.y;
				history.replaceState(null, null, parse_params(params));
				unzoombtn.classList.add("hide");
				return;
			}

			// set parameters for zoom state
			var el = target.querySelector("rect");
			if (el && el.attributes && el.attributes.y && el.attributes._orig_x) {
				var params = get_params()
				params.x = el.attributes._orig_x.value;
				params.y = el.attributes.y.value;
				history.replaceState(null, null, parse_params(params));
			}
		}
		else if (e.target.id == "unzoom") clearzoom();
		else if (e.target.id == "search") search_prompt();
		else if (e.target.id == "ignorecase") toggle_ignorecase();
	}, false)

	// mouse-over for info
	// show
	window.addEventListener("mouseover", function(e) {
		var target = find_group(e.target);
		if (target) details.nodeValue = "Function: " + g_to_text(target);
	}, false)

	// clear
	window.addEventListener("mouseout", function(e) {
		var target = find_group(e.target);
		if (target) details.nodeValue = ' ';
	}, false)

	// ctrl-F for search
	// ctrl-I to toggle case-sensitive search
	window.addEventListener("keydown",function (e) {
		if (e.keyCode === 114 || (e.ctrlKey && e.keyCode === 70)) {
			e.preventDefault();
			search_prompt();
		}
		else if (e.ctrlKey && e.keyCode === 73) {
			e.preventDefault();
			toggle_ignorecase();
		}
	}, false)

	// functions
	function get_params() {
		var params = {};
		var paramsarr = window.location.search.substr(1).split('&');
		for (var i = 0; i < paramsarr.length; ++i) {
			var tmp = paramsarr[i].split("=");
			if (!tmp[0] || !tmp[1]) continue;
			params[tmp[0]]  = decodeURIComponent(tmp[1]);
		}
		return params;
	}
	function parse_params(params) {
		var uri = "?";
		for (var key in params) {
			uri += key + '=' + encodeURIComponent(params[key]) + '&';
		}
		if (uri.slice(-1) == "&")
			uri = uri.substring(0, uri.length - 1);
		if (uri == '?')
			uri = window.location.href.split('?')[0];
		return uri;
	}
	function find_child(node, selector) {
		var children = node.querySelectorAll(selector);
		if (children.length) return children[0];
	}
	function find_group(node) {
		var parent = node.parentElement;
		if (!parent) return;
		if (parent.id == "frames") return node;
		return find_group(parent);
	}
	function orig_save(e, attr, val) {
		if (e.attributes["_orig_" + attr] != undefined) return;
		if (e.attributes[attr] == undefined) return;
		if (val == undefined) val = e.attributes[attr].value;
		e.setAttribute("_orig_" + attr, val);
	}
	function orig_load(e, attr) {
		if (e.attributes["_orig_"+attr] == undefined) return;
		e.attributes[attr].value = e.attributes["_orig_" + attr].value;
		e.removeAttribute("_orig_"+attr);
	}
	function g_to_text(e) {
		var text = find_child(e, "title").firstChild.nodeValue;
		return (text)
	}
	function g_to_func(e) {
		var func = g_to_text(e);
		// if there's any manipulation we want to do to the function
		// name before it's searched, do it here before returning.
		return (func);
	}
	function update_text(e) {
		var r = find_child(e, "rect");
		var t = find_child(e, "text");
		var w = parseFloat(r.attributes.width.value) -3;
		var txt = find_child(e, "title").textContent.replace(/\([^(]*\)$/,"");
		t.attributes.x.value = parseFloat(r.attributes.x.value) + 3;

		// Smaller than this size won't fit anything
		if (w < 2 * 12 * 0.59) {
			t.textContent = "";
			return;
		}

		t.textContent = txt;
		var sl = t.getSubStringLength(0, txt.length);
		// check if only whitespace or if we can fit the entire string into width w
		if (/^ *$/.test(txt) || sl < w)
			return;

		// this isn't perfect, but gives a good starting point
		// and avoids calling getSubStringLength too often
		var start = Math.floor((w/sl) * txt.length);
		for (var x = start; x > 0; x = x-2) {
			if (t.getSubStringLength(0, x + 2) <= w) {
				t.textContent = txt.substring(0, x) + "..";
				return;
			}
		}
		t.textContent = "";
	}

	// zoom
	function zoom_reset(e) {
		if (e.attributes != undefined) {
			orig_load(e, "x");
			orig_load(e, "width");
		}
		if (e.childNodes == undefined) return;
		for (var i = 0, c = e.childNodes; i < c.length; i++) {
			zoom_reset(c[i]);
		}
	}
	function zoom_child(e, x, ratio) {
		if (e.attributes != undefined) {
			if (e.attributes.x != undefined) {
				orig_save(e, "x");
				e.attributes.x.value = (parseFloat(e.attributes.x.value) - x - 10) * ratio + 10;
				if (e.tagName == "text")
					e.attributes.x.value = find_child(e.parentNode, "rect[x]").attributes.x.value + 3;
			}
			if (e.attributes.width != undefined) {
				orig_save(e, "width");
				e.attributes.width.value = parseFloat(e.attributes.width.value) * ratio;
			}
		}

		if (e.childNodes == undefined) return;
		for (var i = 0, c = e.childNodes; i < c.length; i++) {
			zoom_child(c[i], x - 10, ratio);
		}
	}
	function zoom_parent(e) {
		if (e.attributes) {
			if (e.attributes.x != undefined) {
				orig_save(e, "x");
				e.attributes.x.value = 10;
			}
			if (e.attributes.width != undefined) {
				orig_save(e, "width");
				e.attributes.width.value = parseInt(svg.width.baseVal.value) - (10 * 2);
			}
		}
		if (e.childNodes == undefined) return;
		for (var i = 0, c = e.childNodes; i < c.length; i++) {
			zoom_parent(c[i]);
		}
	}
	function zoom(node) {
		var attr = find_child(node, "rect").attributes;
		var width = parseFloat(attr.width.value);
		var xmin = parseFloat(attr.x.value);
		var xmax = parseFloat(xmin + width);
		var ymin = parseFloat(attr.y.value);
		var ratio = (svg.width.baseVal.value - 2 * 10) / width;

		// XXX: Workaround for JavaScript float issues (fix me)
		var fudge = 0.0001;

		unzoombtn.classList.remove("hide");

		var el = document.getElementById("frames").children;
		for (var i = 0; i < el.length; i++) {
			var e = el[i];
			var a = find_child(e, "rect").attributes;
			var ex = parseFloat(a.x.value);
			var ew = parseFloat(a.width.value);
			var upstack;
			// Is it an ancestor
			if (0 == 0) {
				upstack = parseFloat(a.y.value) > ymin;
			} else {
				upstack = parseFloat(a.y.value) < ymin;
			}
			if (upstack) {
				// Direct ancestor
				if (ex <= xmin && (ex+ew+fudge) >= xmax) {
					e.classList.add("parent");
					zoom_parent(e);
					update_text(e);
				}
				// not in current path
				else
					e.classList.add("hide");
			}
			// Children maybe
			else {
				// no common path
				if (ex < xmin || ex + fudge >= xmax) {
					e.classList.add("hide");
				}
				else {
					zoom_child(e, xmin, ratio);
					update_text(e);
				}
			}
		}
		search();
	}
	function unzoom(dont_update_text) {
		unzoombtn.classList.add("hide");
		var el = document.getElementById("frames").children;
		for(var i = 0; i < el.length; i++) {
			el[i].classList.remove("parent");
			el[i].classList.remove("hide");
			zoom_reset(el[i]);
			if(!dont_update_text) update_text(el[i]);
		}
		search();
	}
	function clearzoom() {
		unzoom();

		// remove zoom state
		var params = get_params();
		if (params.x) delete params.x;
		if (params.y) delete params.y;
		history.replaceState(null, null, parse_params(params));
	}

	// search
	function toggle_ignorecase() {
		ignorecase = !ignorecase;
		if (ignorecase) {
			ignorecaseBtn.classList.add("show");
		} else {
			ignorecaseBtn.classList.remove("show");
		}
		reset_search();
		search();
	}
	function reset_search() {
		var el = document.querySelectorAll("#frames rect");
		for (var i = 0; i < el.length; i++) {
			orig_load(el[i], "fill")
		}
		var params = get_params();
		delete params.s;
		history.replaceState(null, null, parse_params(params));
	}
	function search_prompt() {
		if (!searching) {
			var term = prompt("Enter a search term (regexp " +
			    "allowed, eg: ^ext4_)"
			    + (ignorecase ? ", ignoring case" : "")
			    + "\nPress Ctrl-i to toggle case sensitivity", "");
			if (term != null) search(term);
		} else {
			reset_search();
			searching = 0;
			currentSearchTerm = null;
			searchbtn.classList.remove("show");
			searchbtn.firstChild.nodeValue = "Search"
			matchedtxt.classList.add("hide");
			matchedtxt.firstChild.nodeValue = ""
		}
	}
	function search(term) {
		if (term) currentSearchTerm = term;

		var re = new RegExp(currentSearchTerm, ignorecase ? 'i' : '');
		var el = document.getElementById("frames").children;
		var matches = new Object();
		var maxwidth = 0;
		for (var i = 0; i < el.length; i++) {
			var e = el[i];
			var func = g_to_func(e);
			var rect = find_child(e, "rect");
			if (func == null || rect == null)
				continue;

			// Save max width. Only works as we have a root frame
			var w = parseFloat(rect.attributes.width.value);
			if (w > maxwidth)
				maxwidth = w;

			if (func.match(re)) {
				// highlight
				var x = parseFloat(rect.attributes.x.value);
				orig_save(rect, "fill");
				rect.attributes.fill.value = "rgb(230,0,230)";

				// remember matches
				if (matches[x] == undefined) {
					matches[x] = w;
				} else {
					if (w > matches[x]) {
						// overwrite with parent
						matches[x] = w;
					}
				}
				searching = 1;
			}
		}
		if (!searching)
			return;
		var params = get_params();
		params.s = currentSearchTerm;
		history.replaceState(null, null, parse_params(params));

		searchbtn.classList.add("show");
		searchbtn.firstChild.nodeValue = "Reset Search";

		// calculate percent matched, excluding vertical overlap
		var count = 0;
		var lastx = -1;
		var lastw = 0;
		var keys = Array();
		for (k in matches) {
			if (matches.hasOwnProperty(k))
				keys.push(k);
		}
		// sort the matched frames by their x location
		// ascending, then width descending
		keys.sort(function(a, b){
			return a - b;
		});
		// Step through frames saving only the biggest bottom-up frames
		// thanks to the sort order. This relies on the tree property
		// where children are always smaller than their parents.
		var fudge = 0.0001;	// JavaScript floating point
		for (var k in keys) {
			var x = parseFloat(keys[k]);
			var w = matches[keys[k]];
			if (x >= lastx + lastw - fudge) {
				count += w;
				lastx = x;
				lastw = w;
			}
		}
		// display matched percent
		matchedtxt.classList.remove("hide");
		var pct = 100 * count / maxwidth;
		if (pct != 100) pct = pct.toFixed(1)
		matchedtxt.firstChild.nodeValue = "Matched: " + pct + "%";
	}
]]>
</script>
<rect x="0.0" y="0" width="1200.0" height="566.0" fill="url(#background)"  />
<text id="title" x="600.00" y="24" >Flame Graph</text>
<text id="details" x="10.00" y="549" > </text>
<text id="unzoom" x="10.00" y="24" class="hide">Reset Zoom</text>
<text id="search" x="1090.00" y="24" >Search</text>
<text id="ignorecase" x="1174.00" y="24" >ic</text>
<text id="matched" x="1090.00" y="549" > </text>
<g id="frames">
<g >
<title>console_unlock (209,715,392 samples, 0.17%)</title><rect x="1187.1" y="277" width="1.9" height="15.0" fill="rgb(250,173,18)" rx="2" ry="2" />
<text  x="1190.06" y="287.5" ></text>
</g>
<g >
<title>sysvec_apic_timer_interrupt (58,808,026 samples, 0.05%)</title><rect x="1180.3" y="325" width="0.5" height="15.0" fill="rgb(205,46,27)" rx="2" ry="2" />
<text  x="1183.27" y="335.5" ></text>
</g>
<g >
<title>wake_up_klogd_work_func (87,775,356 samples, 0.07%)</title><rect x="990.0" y="117" width="0.9" height="15.0" fill="rgb(226,211,0)" rx="2" ry="2" />
<text  x="993.04" y="127.5" ></text>
</g>
<g >
<title>tick_sched_timer (243,129,871 samples, 0.19%)</title><rect x="1186.9" y="389" width="2.3" height="15.0" fill="rgb(224,80,41)" rx="2" ry="2" />
<text  x="1189.89" y="399.5" ></text>
</g>
<g >
<title>clear_page_erms (19,254,645,498 samples, 15.25%)</title><rect x="1000.9" y="357" width="179.9" height="15.0" fill="rgb(216,79,14)" rx="2" ry="2" />
<text  x="1003.93" y="367.5" >clear_page_erms</text>
</g>
<g >
<title>read (52,299,459 samples, 0.04%)</title><rect x="1189.5" y="485" width="0.5" height="15.0" fill="rgb(246,46,10)" rx="2" ry="2" />
<text  x="1192.50" y="495.5" ></text>
</g>
<g >
<title>wake_up_klogd_work_func (216,229,453 samples, 0.17%)</title><rect x="1187.0" y="293" width="2.1" height="15.0" fill="rgb(224,140,1)" rx="2" ry="2" />
<text  x="1190.04" y="303.5" ></text>
</g>
<g >
<title>_raw_spin_lock (51,747,688 samples, 0.04%)</title><rect x="648.1" y="389" width="0.5" height="15.0" fill="rgb(209,198,11)" rx="2" ry="2" />
<text  x="651.07" y="399.5" ></text>
</g>
<g >
<title>clear_subpage (360,081,658 samples, 0.29%)</title><rect x="1180.8" y="357" width="3.4" height="15.0" fill="rgb(246,80,46)" rx="2" ry="2" />
<text  x="1183.83" y="367.5" ></text>
</g>
<g >
<title>gups_vanilla (126,296,663,059 samples, 100.00%)</title><rect x="10.0" y="501" width="1180.0" height="15.0" fill="rgb(223,130,35)" rx="2" ry="2" />
<text  x="13.00" y="511.5" >gups_vanilla</text>
</g>
<g >
<title>free_pages_and_swap_cache (447,221,058 samples, 0.35%)</title><rect x="11.5" y="293" width="4.2" height="15.0" fill="rgb(206,79,48)" rx="2" ry="2" />
<text  x="14.54" y="303.5" ></text>
</g>
<g >
<title>irq_work_run_list (216,946,449 samples, 0.17%)</title><rect x="1187.0" y="325" width="2.1" height="15.0" fill="rgb(220,7,53)" rx="2" ry="2" />
<text  x="1190.03" y="335.5" ></text>
</g>
<g >
<title>hrtimer_interrupt (57,582,227 samples, 0.05%)</title><rect x="1180.3" y="293" width="0.5" height="15.0" fill="rgb(228,22,3)" rx="2" ry="2" />
<text  x="1183.27" y="303.5" ></text>
</g>
<g >
<title>pci_conf1_read (49,421,735 samples, 0.04%)</title><rect x="1189.5" y="277" width="0.5" height="15.0" fill="rgb(216,54,43)" rx="2" ry="2" />
<text  x="1192.53" y="287.5" ></text>
</g>
<g >
<title>tlb_flush_mmu (57,951,962 samples, 0.05%)</title><rect x="10.5" y="357" width="0.6" height="15.0" fill="rgb(227,73,26)" rx="2" ry="2" />
<text  x="13.52" y="367.5" ></text>
</g>
<g >
<title>__do_munmap (558,743,646 samples, 0.44%)</title><rect x="10.5" y="405" width="5.2" height="15.0" fill="rgb(225,6,26)" rx="2" ry="2" />
<text  x="13.52" y="415.5" ></text>
</g>
<g >
<title>get_page_from_freelist (37,424,683,959 samples, 29.63%)</title><rect x="650.1" y="341" width="349.6" height="15.0" fill="rgb(243,216,34)" rx="2" ry="2" />
<text  x="653.07" y="351.5" >get_page_from_freelist</text>
</g>
<g >
<title>memcpy_erms (27,215,773 samples, 0.02%)</title><rect x="990.6" y="69" width="0.2" height="15.0" fill="rgb(229,214,18)" rx="2" ry="2" />
<text  x="993.58" y="79.5" ></text>
</g>
<g >
<title>do_syscall_64 (558,743,646 samples, 0.44%)</title><rect x="10.5" y="453" width="5.2" height="15.0" fill="rgb(230,138,46)" rx="2" ry="2" />
<text  x="13.52" y="463.5" ></text>
</g>
<g >
<title>tlb_flush_mmu (448,735,722 samples, 0.36%)</title><rect x="11.5" y="309" width="4.2" height="15.0" fill="rgb(227,129,28)" rx="2" ry="2" />
<text  x="14.54" y="319.5" ></text>
</g>
<g >
<title>asm_sysvec_apic_timer_interrupt (257,927,551 samples, 0.20%)</title><rect x="1186.8" y="469" width="2.4" height="15.0" fill="rgb(242,113,9)" rx="2" ry="2" />
<text  x="1189.82" y="479.5" ></text>
</g>
<g >
<title>do_sys_openat2 (17,843,100 samples, 0.01%)</title><rect x="10.1" y="389" width="0.2" height="15.0" fill="rgb(230,187,51)" rx="2" ry="2" />
<text  x="13.13" y="399.5" ></text>
</g>
<g >
<title>do_sys_open (17,843,100 samples, 0.01%)</title><rect x="10.1" y="405" width="0.2" height="15.0" fill="rgb(215,79,17)" rx="2" ry="2" />
<text  x="13.13" y="415.5" ></text>
</g>
<g >
<title>__page_cache_release (10,867,952 samples, 0.01%)</title><rect x="11.6" y="245" width="0.1" height="15.0" fill="rgb(228,151,15)" rx="2" ry="2" />
<text  x="14.64" y="255.5" ></text>
</g>
<g >
<title>do_huge_pmd_anonymous_page (57,587,171,652 samples, 45.60%)</title><rect x="648.6" y="389" width="538.0" height="15.0" fill="rgb(251,53,6)" rx="2" ry="2" />
<text  x="651.58" y="399.5" >do_huge_pmd_anonymous_page</text>
</g>
<g >
<title>prb_read_valid (82,512,298 samples, 0.07%)</title><rect x="990.1" y="85" width="0.7" height="15.0" fill="rgb(246,35,14)" rx="2" ry="2" />
<text  x="993.07" y="95.5" ></text>
</g>
<g >
<title>path_openat (16,703,236 samples, 0.01%)</title><rect x="10.1" y="357" width="0.2" height="15.0" fill="rgb(241,102,36)" rx="2" ry="2" />
<text  x="13.13" y="367.5" ></text>
</g>
<g >
<title>__munmap (558,743,646 samples, 0.44%)</title><rect x="10.5" y="485" width="5.2" height="15.0" fill="rgb(226,64,5)" rx="2" ry="2" />
<text  x="13.52" y="495.5" ></text>
</g>
<g >
<title>lru_cache_add_inactive_or_unevictable (20,707,907 samples, 0.02%)</title><rect x="1185.2" y="373" width="0.2" height="15.0" fill="rgb(213,151,6)" rx="2" ry="2" />
<text  x="1188.20" y="383.5" ></text>
</g>
<g >
<title>desc_read_finalized_seq (16,850,908 samples, 0.01%)</title><rect x="990.3" y="53" width="0.2" height="15.0" fill="rgb(242,113,9)" rx="2" ry="2" />
<text  x="993.34" y="63.5" ></text>
</g>
<g >
<title>__sysvec_apic_timer_interrupt (249,552,114 samples, 0.20%)</title><rect x="1186.9" y="437" width="2.3" height="15.0" fill="rgb(221,71,50)" rx="2" ry="2" />
<text  x="1189.87" y="447.5" ></text>
</g>
<g >
<title>__x64_sys_read (52,123,980 samples, 0.04%)</title><rect x="1189.5" y="437" width="0.5" height="15.0" fill="rgb(215,24,37)" rx="2" ry="2" />
<text  x="1192.50" y="447.5" ></text>
</g>
<g >
<title>uncharge_batch (15,147,603 samples, 0.01%)</title><rect x="11.8" y="197" width="0.2" height="15.0" fill="rgb(246,64,46)" rx="2" ry="2" />
<text  x="14.84" y="207.5" ></text>
</g>
<g >
<title>get_page_from_freelist (18,865,341 samples, 0.01%)</title><rect x="1186.4" y="325" width="0.2" height="15.0" fill="rgb(213,176,23)" rx="2" ry="2" />
<text  x="1189.39" y="335.5" ></text>
</g>
<g >
<title>memcpy_erms (12,884,030 samples, 0.01%)</title><rect x="1180.6" y="117" width="0.1" height="15.0" fill="rgb(221,172,54)" rx="2" ry="2" />
<text  x="1183.62" y="127.5" ></text>
</g>
<g >
<title>prep_compound_page (470,594,194 samples, 0.37%)</title><rect x="995.2" y="309" width="4.4" height="15.0" fill="rgb(221,185,23)" rx="2" ry="2" />
<text  x="998.23" y="319.5" ></text>
</g>
<g >
<title>free_pcp_prepare (50,097,592 samples, 0.04%)</title><rect x="10.6" y="245" width="0.5" height="15.0" fill="rgb(253,154,12)" rx="2" ry="2" />
<text  x="13.59" y="255.5" ></text>
</g>
<g >
<title>rmqueue_bulk (11,193,147 samples, 0.01%)</title><rect x="999.6" y="325" width="0.1" height="15.0" fill="rgb(248,39,9)" rx="2" ry="2" />
<text  x="1002.63" y="335.5" ></text>
</g>
<g >
<title>__handle_mm_fault (57,650,636,991 samples, 45.65%)</title><rect x="648.0" y="405" width="538.6" height="15.0" fill="rgb(246,93,53)" rx="2" ry="2" />
<text  x="651.00" y="415.5" >__handle_mm_fault</text>
</g>
<g >
<title>prb_read_valid (43,824,171 samples, 0.03%)</title><rect x="1180.3" y="133" width="0.4" height="15.0" fill="rgb(253,92,16)" rx="2" ry="2" />
<text  x="1183.34" y="143.5" ></text>
</g>
<g >
<title>__pagevec_lru_add (18,525,875 samples, 0.01%)</title><rect x="1185.2" y="341" width="0.2" height="15.0" fill="rgb(235,144,36)" rx="2" ry="2" />
<text  x="1188.21" y="351.5" ></text>
</g>
<g >
<title>__hrtimer_run_queues (103,925,253 samples, 0.08%)</title><rect x="990.0" y="229" width="0.9" height="15.0" fill="rgb(220,74,27)" rx="2" ry="2" />
<text  x="992.96" y="239.5" ></text>
</g>
<g >
<title>__sysvec_apic_timer_interrupt (57,844,807 samples, 0.05%)</title><rect x="1180.3" y="309" width="0.5" height="15.0" fill="rgb(248,26,46)" rx="2" ry="2" />
<text  x="1183.27" y="319.5" ></text>
</g>
<g >
<title>update_process_times (96,464,261 samples, 0.08%)</title><rect x="990.0" y="181" width="0.9" height="15.0" fill="rgb(219,187,30)" rx="2" ry="2" />
<text  x="993.03" y="191.5" ></text>
</g>
<g >
<title>__memcg_kmem_charge_page (72,705,057 samples, 0.06%)</title><rect x="1185.7" y="325" width="0.6" height="15.0" fill="rgb(206,45,1)" rx="2" ry="2" />
<text  x="1188.66" y="335.5" ></text>
</g>
<g >
<title>update_process_times (230,726,683 samples, 0.18%)</title><rect x="1187.0" y="357" width="2.2" height="15.0" fill="rgb(233,222,36)" rx="2" ry="2" />
<text  x="1190.01" y="367.5" ></text>
</g>
<g >
<title>free_unref_page (398,866,634 samples, 0.32%)</title><rect x="12.0" y="213" width="3.7" height="15.0" fill="rgb(233,110,3)" rx="2" ry="2" />
<text  x="14.99" y="223.5" ></text>
</g>
<g >
<title>alloc_pages_vma (37,448,043,184 samples, 29.65%)</title><rect x="649.9" y="373" width="349.9" height="15.0" fill="rgb(217,35,3)" rx="2" ry="2" />
<text  x="652.90" y="383.5" >alloc_pages_vma</text>
</g>
<g >
<title>irq_work_tick (47,153,474 samples, 0.04%)</title><rect x="1180.3" y="213" width="0.5" height="15.0" fill="rgb(235,206,2)" rx="2" ry="2" />
<text  x="1183.32" y="223.5" ></text>
</g>
<g >
<title>kernfs_fop_read_iter (52,041,028 samples, 0.04%)</title><rect x="1189.5" y="373" width="0.5" height="15.0" fill="rgb(225,224,47)" rx="2" ry="2" />
<text  x="1192.50" y="383.5" ></text>
</g>
<g >
<title>__hrtimer_run_queues (243,839,780 samples, 0.19%)</title><rect x="1186.9" y="405" width="2.3" height="15.0" fill="rgb(233,219,23)" rx="2" ry="2" />
<text  x="1189.89" y="415.5" ></text>
</g>
<g >
<title>irq_work_single (47,066,180 samples, 0.04%)</title><rect x="1180.3" y="181" width="0.5" height="15.0" fill="rgb(240,120,15)" rx="2" ry="2" />
<text  x="1183.32" y="191.5" ></text>
</g>
<g >
<title>tick_sched_handle.isra.0 (96,552,148 samples, 0.08%)</title><rect x="990.0" y="197" width="0.9" height="15.0" fill="rgb(237,24,13)" rx="2" ry="2" />
<text  x="993.03" y="207.5" ></text>
</g>
<g >
<title>irq_work_run_list (47,153,474 samples, 0.04%)</title><rect x="1180.3" y="197" width="0.5" height="15.0" fill="rgb(205,89,23)" rx="2" ry="2" />
<text  x="1183.32" y="207.5" ></text>
</g>
<g >
<title>__x64_sys_openat (17,843,100 samples, 0.01%)</title><rect x="10.1" y="421" width="0.2" height="15.0" fill="rgb(254,121,31)" rx="2" ry="2" />
<text  x="13.13" y="431.5" ></text>
</g>
<g >
<title>unmap_single_vma (499,895,461 samples, 0.40%)</title><rect x="11.1" y="357" width="4.6" height="15.0" fill="rgb(222,12,28)" rx="2" ry="2" />
<text  x="14.07" y="367.5" ></text>
</g>
<g >
<title>__alloc_pages (37,438,733,731 samples, 29.64%)</title><rect x="649.9" y="357" width="349.8" height="15.0" fill="rgb(248,94,15)" rx="2" ry="2" />
<text  x="652.94" y="367.5" >__alloc_pages</text>
</g>
<g >
<title>__free_pages (21,959,286 samples, 0.02%)</title><rect x="11.1" y="309" width="0.2" height="15.0" fill="rgb(241,23,31)" rx="2" ry="2" />
<text  x="14.12" y="319.5" ></text>
</g>
<g >
<title>page_add_new_anon_rmap (10,930,284 samples, 0.01%)</title><rect x="1185.4" y="373" width="0.1" height="15.0" fill="rgb(207,69,37)" rx="2" ry="2" />
<text  x="1188.39" y="383.5" ></text>
</g>
<g >
<title>desc_read (33,181,406 samples, 0.03%)</title><rect x="1188.0" y="213" width="0.3" height="15.0" fill="rgb(224,128,27)" rx="2" ry="2" />
<text  x="1190.98" y="223.5" ></text>
</g>
<g >
<title>hrtimer_interrupt (248,841,411 samples, 0.20%)</title><rect x="1186.9" y="421" width="2.3" height="15.0" fill="rgb(215,166,47)" rx="2" ry="2" />
<text  x="1189.88" y="431.5" ></text>
</g>
<g >
<title>try_charge_memcg (17,303,018 samples, 0.01%)</title><rect x="1186.1" y="293" width="0.2" height="15.0" fill="rgb(236,102,0)" rx="2" ry="2" />
<text  x="1189.15" y="303.5" ></text>
</g>
<g >
<title>__hrtimer_run_queues (56,355,852 samples, 0.04%)</title><rect x="1180.3" y="277" width="0.5" height="15.0" fill="rgb(252,60,5)" rx="2" ry="2" />
<text  x="1183.27" y="287.5" ></text>
</g>
<g >
<title>vfs_read (52,123,980 samples, 0.04%)</title><rect x="1189.5" y="405" width="0.5" height="15.0" fill="rgb(221,7,13)" rx="2" ry="2" />
<text  x="1192.50" y="415.5" ></text>
</g>
<g >
<title>ksys_read (52,123,980 samples, 0.04%)</title><rect x="1189.5" y="421" width="0.5" height="15.0" fill="rgb(208,76,49)" rx="2" ry="2" />
<text  x="1192.50" y="431.5" ></text>
</g>
<g >
<title>prb_read_valid (202,832,293 samples, 0.16%)</title><rect x="1187.1" y="261" width="1.9" height="15.0" fill="rgb(241,166,24)" rx="2" ry="2" />
<text  x="1190.12" y="271.5" ></text>
</g>
<g >
<title>_prb_read_valid (29,188,189 samples, 0.02%)</title><rect x="1180.3" y="117" width="0.3" height="15.0" fill="rgb(214,227,22)" rx="2" ry="2" />
<text  x="1183.34" y="127.5" ></text>
</g>
<g >
<title>__cond_resched (81,680,414 samples, 0.06%)</title><rect x="648.8" y="373" width="0.8" height="15.0" fill="rgb(246,157,9)" rx="2" ry="2" />
<text  x="651.81" y="383.5" ></text>
</g>
<g >
<title>tick_sched_handle.isra.0 (231,350,566 samples, 0.18%)</title><rect x="1187.0" y="373" width="2.2" height="15.0" fill="rgb(235,123,17)" rx="2" ry="2" />
<text  x="1190.00" y="383.5" ></text>
</g>
<g >
<title>charge_memcg (20,962,775 samples, 0.02%)</title><rect x="649.6" y="357" width="0.2" height="15.0" fill="rgb(247,35,46)" rx="2" ry="2" />
<text  x="652.59" y="367.5" ></text>
</g>
<g >
<title>asm_sysvec_apic_timer_interrupt (58,808,026 samples, 0.05%)</title><rect x="1180.3" y="341" width="0.5" height="15.0" fill="rgb(254,99,46)" rx="2" ry="2" />
<text  x="1183.27" y="351.5" ></text>
</g>
<g >
<title>free_pcp_prepare (392,192,222 samples, 0.31%)</title><rect x="12.0" y="197" width="3.7" height="15.0" fill="rgb(216,110,35)" rx="2" ry="2" />
<text  x="14.99" y="207.5" ></text>
</g>
<g >
<title>sysfs_kf_bin_read (51,170,526 samples, 0.04%)</title><rect x="1189.5" y="357" width="0.5" height="15.0" fill="rgb(208,181,41)" rx="2" ry="2" />
<text  x="1192.51" y="367.5" ></text>
</g>
<g >
<title>obj_cgroup_charge_pages (51,481,019 samples, 0.04%)</title><rect x="1185.8" y="309" width="0.5" height="15.0" fill="rgb(211,73,8)" rx="2" ry="2" />
<text  x="1188.83" y="319.5" ></text>
</g>
<g >
<title>[unknown] (38,383,189 samples, 0.03%)</title><rect x="10.0" y="485" width="0.4" height="15.0" fill="rgb(232,137,2)" rx="2" ry="2" />
<text  x="13.03" y="495.5" ></text>
</g>
<g >
<title>memcpy_erms (55,667,843 samples, 0.04%)</title><rect x="1188.5" y="245" width="0.5" height="15.0" fill="rgb(222,41,25)" rx="2" ry="2" />
<text  x="1191.49" y="255.5" ></text>
</g>
<g >
<title>unmap_page_range (499,805,930 samples, 0.40%)</title><rect x="11.1" y="341" width="4.6" height="15.0" fill="rgb(252,46,48)" rx="2" ry="2" />
<text  x="14.07" y="351.5" ></text>
</g>
<g >
<title>zap_huge_pmd (498,732,782 samples, 0.39%)</title><rect x="11.1" y="325" width="4.6" height="15.0" fill="rgb(207,162,50)" rx="2" ry="2" />
<text  x="14.08" y="335.5" ></text>
</g>
<g >
<title>do_syscall_64 (18,193,010 samples, 0.01%)</title><rect x="10.1" y="437" width="0.2" height="15.0" fill="rgb(217,120,7)" rx="2" ry="2" />
<text  x="13.13" y="447.5" ></text>
</g>
<g >
<title>sysvec_apic_timer_interrupt (252,140,559 samples, 0.20%)</title><rect x="1186.9" y="453" width="2.3" height="15.0" fill="rgb(213,205,36)" rx="2" ry="2" />
<text  x="1189.87" y="463.5" ></text>
</g>
<g >
<title>desc_read_finalized_seq (44,357,722 samples, 0.04%)</title><rect x="1187.9" y="229" width="0.4" height="15.0" fill="rgb(233,141,21)" rx="2" ry="2" />
<text  x="1190.88" y="239.5" ></text>
</g>
<g >
<title>__mod_lruvec_page_state (11,535,966 samples, 0.01%)</title><rect x="1185.5" y="357" width="0.1" height="15.0" fill="rgb(214,192,16)" rx="2" ry="2" />
<text  x="1188.52" y="367.5" ></text>
</g>
<g >
<title>lru_cache_add (20,185,325 samples, 0.02%)</title><rect x="1185.2" y="357" width="0.2" height="15.0" fill="rgb(221,16,23)" rx="2" ry="2" />
<text  x="1188.20" y="367.5" ></text>
</g>
<g >
<title>tlb_finish_mmu (58,041,388 samples, 0.05%)</title><rect x="10.5" y="373" width="0.6" height="15.0" fill="rgb(254,69,12)" rx="2" ry="2" />
<text  x="13.52" y="383.5" ></text>
</g>
<g >
<title>__put_compound_page (445,082,451 samples, 0.35%)</title><rect x="11.6" y="261" width="4.1" height="15.0" fill="rgb(216,118,46)" rx="2" ry="2" />
<text  x="14.56" y="271.5" ></text>
</g>
<g >
<title>clear_page_erms (36,444,116,693 samples, 28.86%)</title><rect x="650.5" y="309" width="340.5" height="15.0" fill="rgb(211,138,21)" rx="2" ry="2" />
<text  x="653.50" y="319.5" >clear_page_erms</text>
</g>
<g >
<title>__mem_cgroup_charge (32,591,988 samples, 0.03%)</title><rect x="649.6" y="373" width="0.3" height="15.0" fill="rgb(238,97,47)" rx="2" ry="2" />
<text  x="652.59" y="383.5" ></text>
</g>
<g >
<title>entry_SYSCALL_64 (18,455,819 samples, 0.01%)</title><rect x="10.1" y="453" width="0.2" height="15.0" fill="rgb(252,93,23)" rx="2" ry="2" />
<text  x="13.12" y="463.5" ></text>
</g>
<g >
<title>free_pages_and_swap_cache (57,683,547 samples, 0.05%)</title><rect x="10.5" y="341" width="0.6" height="15.0" fill="rgb(231,220,51)" rx="2" ry="2" />
<text  x="13.52" y="351.5" ></text>
</g>
<g >
<title>irq_work_tick (217,301,009 samples, 0.17%)</title><rect x="1187.0" y="341" width="2.1" height="15.0" fill="rgb(245,147,44)" rx="2" ry="2" />
<text  x="1190.03" y="351.5" ></text>
</g>
<g >
<title>alloc_pages (105,809,246 samples, 0.08%)</title><rect x="1185.6" y="357" width="1.0" height="15.0" fill="rgb(245,116,47)" rx="2" ry="2" />
<text  x="1188.63" y="367.5" ></text>
</g>
<g >
<title>page_counter_try_charge (29,628,428 samples, 0.02%)</title><rect x="1185.9" y="293" width="0.2" height="15.0" fill="rgb(225,21,12)" rx="2" ry="2" />
<text  x="1188.86" y="303.5" ></text>
</g>
<g >
<title>console_unlock (84,879,397 samples, 0.07%)</title><rect x="990.0" y="101" width="0.8" height="15.0" fill="rgb(215,56,21)" rx="2" ry="2" />
<text  x="993.05" y="111.5" ></text>
</g>
<g >
<title>free_transhuge_page (55,004,250 samples, 0.04%)</title><rect x="10.5" y="293" width="0.6" height="15.0" fill="rgb(238,16,48)" rx="2" ry="2" />
<text  x="13.55" y="303.5" ></text>
</g>
<g >
<title>free_compound_page (53,936,882 samples, 0.04%)</title><rect x="10.6" y="277" width="0.5" height="15.0" fill="rgb(234,126,11)" rx="2" ry="2" />
<text  x="13.56" y="287.5" ></text>
</g>
<g >
<title>tick_sched_timer (56,092,930 samples, 0.04%)</title><rect x="1180.3" y="261" width="0.5" height="15.0" fill="rgb(244,20,17)" rx="2" ry="2" />
<text  x="1183.28" y="271.5" ></text>
</g>
<g >
<title>__mem_cgroup_uncharge (16,930,585 samples, 0.01%)</title><rect x="11.8" y="213" width="0.2" height="15.0" fill="rgb(251,117,12)" rx="2" ry="2" />
<text  x="14.83" y="223.5" ></text>
</g>
<g >
<title>__put_compound_page (57,147,110 samples, 0.05%)</title><rect x="10.5" y="309" width="0.6" height="15.0" fill="rgb(217,164,30)" rx="2" ry="2" />
<text  x="13.53" y="319.5" ></text>
</g>
<g >
<title>irq_work_single (216,768,007 samples, 0.17%)</title><rect x="1187.0" y="309" width="2.1" height="15.0" fill="rgb(218,10,9)" rx="2" ry="2" />
<text  x="1190.04" y="319.5" ></text>
</g>
<g >
<title>free_unref_page (51,167,744 samples, 0.04%)</title><rect x="10.6" y="261" width="0.5" height="15.0" fill="rgb(253,74,20)" rx="2" ry="2" />
<text  x="13.58" y="271.5" ></text>
</g>
<g >
<title>unmap_region (558,653,609 samples, 0.44%)</title><rect x="10.5" y="389" width="5.2" height="15.0" fill="rgb(208,42,45)" rx="2" ry="2" />
<text  x="13.52" y="399.5" ></text>
</g>
<g >
<title>free_transhuge_page (425,659,135 samples, 0.34%)</title><rect x="11.7" y="245" width="4.0" height="15.0" fill="rgb(221,84,34)" rx="2" ry="2" />
<text  x="14.74" y="255.5" ></text>
</g>
<g >
<title>do_syscall_64 (52,211,596 samples, 0.04%)</title><rect x="1189.5" y="453" width="0.5" height="15.0" fill="rgb(206,171,49)" rx="2" ry="2" />
<text  x="1192.50" y="463.5" ></text>
</g>
<g >
<title>clear_subpage (19,502,095 samples, 0.02%)</title><rect x="1185.0" y="373" width="0.2" height="15.0" fill="rgb(211,213,36)" rx="2" ry="2" />
<text  x="1188.01" y="383.5" ></text>
</g>
<g >
<title>irq_work_single (87,951,502 samples, 0.07%)</title><rect x="990.0" y="133" width="0.9" height="15.0" fill="rgb(231,27,23)" rx="2" ry="2" />
<text  x="993.04" y="143.5" ></text>
</g>
<g >
<title>__vm_munmap (558,743,646 samples, 0.44%)</title><rect x="10.5" y="421" width="5.2" height="15.0" fill="rgb(209,73,22)" rx="2" ry="2" />
<text  x="13.52" y="431.5" ></text>
</g>
<g >
<title>console_unlock (45,313,106 samples, 0.04%)</title><rect x="1180.3" y="149" width="0.4" height="15.0" fill="rgb(241,88,47)" rx="2" ry="2" />
<text  x="1183.32" y="159.5" ></text>
</g>
<g >
<title>sync_regs (18,933,251 samples, 0.01%)</title><rect x="1189.3" y="469" width="0.2" height="15.0" fill="rgb(246,157,40)" rx="2" ry="2" />
<text  x="1192.33" y="479.5" ></text>
</g>
<g >
<title>do_filp_open (16,703,236 samples, 0.01%)</title><rect x="10.1" y="373" width="0.2" height="15.0" fill="rgb(232,77,30)" rx="2" ry="2" />
<text  x="13.13" y="383.5" ></text>
</g>
<g >
<title>release_pages (57,683,547 samples, 0.05%)</title><rect x="10.5" y="325" width="0.6" height="15.0" fill="rgb(249,147,47)" rx="2" ry="2" />
<text  x="13.52" y="335.5" ></text>
</g>
<g >
<title>page_counter_try_charge (11,622,977 samples, 0.01%)</title><rect x="649.7" y="325" width="0.1" height="15.0" fill="rgb(234,44,12)" rx="2" ry="2" />
<text  x="652.67" y="335.5" ></text>
</g>
<g >
<title>pci_user_read_config_dword (50,732,005 samples, 0.04%)</title><rect x="1189.5" y="325" width="0.5" height="15.0" fill="rgb(208,84,42)" rx="2" ry="2" />
<text  x="1192.52" y="335.5" ></text>
</g>
<g >
<title>pci_read (49,680,962 samples, 0.04%)</title><rect x="1189.5" y="309" width="0.5" height="15.0" fill="rgb(223,145,5)" rx="2" ry="2" />
<text  x="1192.53" y="319.5" ></text>
</g>
<g >
<title>prep_new_page (37,385,804,021 samples, 29.60%)</title><rect x="650.3" y="325" width="349.3" height="15.0" fill="rgb(222,45,25)" rx="2" ry="2" />
<text  x="653.33" y="335.5" >prep_new_page</text>
</g>
<g >
<title>asm_sysvec_apic_timer_interrupt (109,541,691 samples, 0.09%)</title><rect x="990.0" y="293" width="1.0" height="15.0" fill="rgb(210,176,6)" rx="2" ry="2" />
<text  x="992.96" y="303.5" ></text>
</g>
<g >
<title>all (126,296,663,059 samples, 100%)</title><rect x="10.0" y="517" width="1180.0" height="15.0" fill="rgb(229,165,22)" rx="2" ry="2" />
<text  x="13.00" y="527.5" ></text>
</g>
<g >
<title>try_charge_memcg (13,545,716 samples, 0.01%)</title><rect x="649.7" y="341" width="0.1" height="15.0" fill="rgb(231,0,12)" rx="2" ry="2" />
<text  x="652.66" y="351.5" ></text>
</g>
<g >
<title>entry_SYSCALL_64 (558,743,646 samples, 0.44%)</title><rect x="10.5" y="469" width="5.2" height="15.0" fill="rgb(227,129,0)" rx="2" ry="2" />
<text  x="13.52" y="479.5" ></text>
</g>
<g >
<title>entry_SYSCALL_64 (52,211,596 samples, 0.04%)</title><rect x="1189.5" y="469" width="0.5" height="15.0" fill="rgb(221,72,41)" rx="2" ry="2" />
<text  x="1192.50" y="479.5" ></text>
</g>
<g >
<title>__sysvec_apic_timer_interrupt (108,313,770 samples, 0.09%)</title><rect x="990.0" y="261" width="1.0" height="15.0" fill="rgb(223,5,33)" rx="2" ry="2" />
<text  x="992.96" y="271.5" ></text>
</g>
<g >
<title>new_sync_read (52,041,028 samples, 0.04%)</title><rect x="1189.5" y="389" width="0.5" height="15.0" fill="rgb(229,31,39)" rx="2" ry="2" />
<text  x="1192.50" y="399.5" ></text>
</g>
<g >
<title>_prb_read_valid (138,844,957 samples, 0.11%)</title><rect x="1187.1" y="245" width="1.3" height="15.0" fill="rgb(220,141,53)" rx="2" ry="2" />
<text  x="1190.15" y="255.5" ></text>
</g>
<g >
<title>__cond_resched (37,601,473 samples, 0.03%)</title><rect x="1000.5" y="357" width="0.4" height="15.0" fill="rgb(246,195,24)" rx="2" ry="2" />
<text  x="1003.53" y="367.5" ></text>
</g>
<g >
<title>free_compound_page (416,599,390 samples, 0.33%)</title><rect x="11.8" y="229" width="3.9" height="15.0" fill="rgb(208,194,44)" rx="2" ry="2" />
<text  x="14.83" y="239.5" ></text>
</g>
<g >
<title>__GI___openat64 (18,718,758 samples, 0.01%)</title><rect x="10.1" y="469" width="0.2" height="15.0" fill="rgb(243,171,40)" rx="2" ry="2" />
<text  x="13.12" y="479.5" ></text>
</g>
<g >
<title>irq_work_tick (87,951,502 samples, 0.07%)</title><rect x="990.0" y="165" width="0.9" height="15.0" fill="rgb(226,64,40)" rx="2" ry="2" />
<text  x="993.04" y="175.5" ></text>
</g>
<g >
<title>pte_alloc_one (118,393,421 samples, 0.09%)</title><rect x="1185.5" y="373" width="1.1" height="15.0" fill="rgb(231,93,14)" rx="2" ry="2" />
<text  x="1188.52" y="383.5" ></text>
</g>
<g >
<title>_prb_read_valid (51,961,815 samples, 0.04%)</title><rect x="990.1" y="69" width="0.5" height="15.0" fill="rgb(243,205,31)" rx="2" ry="2" />
<text  x="993.08" y="79.5" ></text>
</g>
<g >
<title>clear_huge_page (19,824,374,592 samples, 15.70%)</title><rect x="999.8" y="373" width="185.2" height="15.0" fill="rgb(230,74,48)" rx="2" ry="2" />
<text  x="1002.78" y="383.5" >clear_huge_page</text>
</g>
<g >
<title>rcu_all_qs (86,770,367 samples, 0.07%)</title><rect x="1184.2" y="357" width="0.8" height="15.0" fill="rgb(225,67,54)" rx="2" ry="2" />
<text  x="1187.19" y="367.5" ></text>
</g>
<g >
<title>get_data.isra.0 (16,470,715 samples, 0.01%)</title><rect x="1188.3" y="229" width="0.1" height="15.0" fill="rgb(242,20,11)" rx="2" ry="2" />
<text  x="1191.29" y="239.5" ></text>
</g>
<g >
<title>unmap_vmas (499,895,461 samples, 0.40%)</title><rect x="11.1" y="373" width="4.6" height="15.0" fill="rgb(218,2,42)" rx="2" ry="2" />
<text  x="14.07" y="383.5" ></text>
</g>
<g >
<title>asm_exc_page_fault (57,734,878,544 samples, 45.71%)</title><rect x="647.4" y="469" width="539.4" height="15.0" fill="rgb(210,44,46)" rx="2" ry="2" />
<text  x="650.40" y="479.5" >asm_exc_page_fault</text>
</g>
<g >
<title>kernel_init_free_pages.part.0 (453,208,370 samples, 0.36%)</title><rect x="991.0" y="309" width="4.2" height="15.0" fill="rgb(224,178,46)" rx="2" ry="2" />
<text  x="994.00" y="319.5" ></text>
</g>
<g >
<title>irq_work_run_list (87,951,502 samples, 0.07%)</title><rect x="990.0" y="149" width="0.9" height="15.0" fill="rgb(240,142,54)" rx="2" ry="2" />
<text  x="993.04" y="159.5" ></text>
</g>
<g >
<title>update_process_times (52,411,213 samples, 0.04%)</title><rect x="1180.3" y="229" width="0.5" height="15.0" fill="rgb(252,172,0)" rx="2" ry="2" />
<text  x="1183.31" y="239.5" ></text>
</g>
<g >
<title>desc_read (12,636,345 samples, 0.01%)</title><rect x="990.4" y="37" width="0.1" height="15.0" fill="rgb(239,107,31)" rx="2" ry="2" />
<text  x="993.38" y="47.5" ></text>
</g>
<g >
<title>wake_up_klogd_work_func (46,978,576 samples, 0.04%)</title><rect x="1180.3" y="165" width="0.5" height="15.0" fill="rgb(229,216,12)" rx="2" ry="2" />
<text  x="1183.32" y="175.5" ></text>
</g>
<g >
<title>main (125,626,895,128 samples, 99.47%)</title><rect x="15.8" y="485" width="1173.7" height="15.0" fill="rgb(242,183,25)" rx="2" ry="2" />
<text  x="18.76" y="495.5" >main</text>
</g>
<g >
<title>asm_sysvec_apic_timer_interrupt (14,480,598 samples, 0.01%)</title><rect x="650.4" y="309" width="0.1" height="15.0" fill="rgb(239,6,28)" rx="2" ry="2" />
<text  x="653.36" y="319.5" ></text>
</g>
<g >
<title>tick_sched_handle.isra.0 (52,674,476 samples, 0.04%)</title><rect x="1180.3" y="245" width="0.5" height="15.0" fill="rgb(231,121,18)" rx="2" ry="2" />
<text  x="1183.31" y="255.5" ></text>
</g>
<g >
<title>sysvec_apic_timer_interrupt (109,541,691 samples, 0.09%)</title><rect x="990.0" y="277" width="1.0" height="15.0" fill="rgb(221,101,13)" rx="2" ry="2" />
<text  x="992.96" y="287.5" ></text>
</g>
<g >
<title>__alloc_pages (102,224,106 samples, 0.08%)</title><rect x="1185.6" y="341" width="1.0" height="15.0" fill="rgb(230,103,5)" rx="2" ry="2" />
<text  x="1188.63" y="351.5" ></text>
</g>
<g >
<title>pci_read_config (51,170,526 samples, 0.04%)</title><rect x="1189.5" y="341" width="0.5" height="15.0" fill="rgb(222,198,12)" rx="2" ry="2" />
<text  x="1192.51" y="351.5" ></text>
</g>
<g >
<title>release_pages (447,131,566 samples, 0.35%)</title><rect x="11.5" y="277" width="4.2" height="15.0" fill="rgb(226,122,24)" rx="2" ry="2" />
<text  x="14.54" y="287.5" ></text>
</g>
<g >
<title>exc_page_fault (57,698,317,493 samples, 45.68%)</title><rect x="647.7" y="453" width="539.1" height="15.0" fill="rgb(229,4,40)" rx="2" ry="2" />
<text  x="650.74" y="463.5" >exc_page_fault</text>
</g>
<g >
<title>page_remove_rmap (19,460,175 samples, 0.02%)</title><rect x="11.4" y="309" width="0.1" height="15.0" fill="rgb(231,47,26)" rx="2" ry="2" />
<text  x="14.35" y="319.5" ></text>
</g>
<g >
<title>do_user_addr_fault (57,687,031,613 samples, 45.68%)</title><rect x="647.8" y="437" width="538.9" height="15.0" fill="rgb(254,110,21)" rx="2" ry="2" />
<text  x="650.75" y="447.5" >do_user_addr_fault</text>
</g>
<g >
<title>raw_pci_read (49,680,962 samples, 0.04%)</title><rect x="1189.5" y="293" width="0.5" height="15.0" fill="rgb(235,206,18)" rx="2" ry="2" />
<text  x="1192.53" y="303.5" ></text>
</g>
<g >
<title>handle_mm_fault (57,667,440,996 samples, 45.66%)</title><rect x="647.9" y="421" width="538.8" height="15.0" fill="rgb(238,71,16)" rx="2" ry="2" />
<text  x="650.87" y="431.5" >handle_mm_fault</text>
</g>
<g >
<title>tick_sched_timer (103,311,206 samples, 0.08%)</title><rect x="990.0" y="213" width="0.9" height="15.0" fill="rgb(248,163,16)" rx="2" ry="2" />
<text  x="992.97" y="223.5" ></text>
</g>
<g >
<title>hrtimer_interrupt (107,875,169 samples, 0.09%)</title><rect x="990.0" y="245" width="1.0" height="15.0" fill="rgb(216,25,11)" rx="2" ry="2" />
<text  x="992.96" y="255.5" ></text>
</g>
<g >
<title>__x64_sys_munmap (558,743,646 samples, 0.44%)</title><rect x="10.5" y="437" width="5.2" height="15.0" fill="rgb(243,15,43)" rx="2" ry="2" />
<text  x="13.52" y="447.5" ></text>
</g>
</g>
</svg>
