<?xml version="1.0" standalone="no"?>
<!DOCTYPE svg PUBLIC "-//W3C//DTD SVG 1.1//EN" "http://www.w3.org/Graphics/SVG/1.1/DTD/svg11.dtd">
<svg version="1.1" width="1200" height="582" onload="init(evt)" viewBox="0 0 1200 582" xmlns="http://www.w3.org/2000/svg" xmlns:xlink="http://www.w3.org/1999/xlink">
<!-- Flame graph stack visualization. See https://github.com/brendangregg/FlameGraph for latest version, and http://www.brendangregg.com/flamegraphs.html for examples. -->
<!-- NOTES:  -->
<defs>
	<linearGradient id="background" y1="0" y2="1" x1="0" x2="0" >
		<stop stop-color="#eeeeee" offset="5%" />
		<stop stop-color="#eeeeb0" offset="95%" />
	</linearGradient>
</defs>
<style type="text/css">
	text { font-family:Verdana; font-size:12px; fill:rgb(0,0,0); }
	#search, #ignorecase { opacity:0.1; cursor:pointer; }
	#search:hover, #search.show, #ignorecase:hover, #ignorecase.show { opacity:1; }
	#subtitle { text-anchor:middle; font-color:rgb(160,160,160); }
	#title { text-anchor:middle; font-size:17px}
	#unzoom { cursor:pointer; }
	#frames > *:hover { stroke:black; stroke-width:0.5; cursor:pointer; }
	.hide { display:none; }
	.parent { opacity:0.5; }
</style>
<script type="text/ecmascript">
<![CDATA[
	"use strict";
	var details, searchbtn, unzoombtn, matchedtxt, svg, searching, currentSearchTerm, ignorecase, ignorecaseBtn;
	function init(evt) {
		details = document.getElementById("details").firstChild;
		searchbtn = document.getElementById("search");
		ignorecaseBtn = document.getElementById("ignorecase");
		unzoombtn = document.getElementById("unzoom");
		matchedtxt = document.getElementById("matched");
		svg = document.getElementsByTagName("svg")[0];
		searching = 0;
		currentSearchTerm = null;

		// use GET parameters to restore a flamegraphs state.
		var params = get_params();
		if (params.x && params.y)
			zoom(find_group(document.querySelector('[x="' + params.x + '"][y="' + params.y + '"]')));
                if (params.s) search(params.s);
	}

	// event listeners
	window.addEventListener("click", function(e) {
		var target = find_group(e.target);
		if (target) {
			if (target.nodeName == "a") {
				if (e.ctrlKey === false) return;
				e.preventDefault();
			}
			if (target.classList.contains("parent")) unzoom(true);
			zoom(target);
			if (!document.querySelector('.parent')) {
				// we have basically done a clearzoom so clear the url
				var params = get_params();
				if (params.x) delete params.x;
				if (params.y) delete params.y;
				history.replaceState(null, null, parse_params(params));
				unzoombtn.classList.add("hide");
				return;
			}

			// set parameters for zoom state
			var el = target.querySelector("rect");
			if (el && el.attributes && el.attributes.y && el.attributes._orig_x) {
				var params = get_params()
				params.x = el.attributes._orig_x.value;
				params.y = el.attributes.y.value;
				history.replaceState(null, null, parse_params(params));
			}
		}
		else if (e.target.id == "unzoom") clearzoom();
		else if (e.target.id == "search") search_prompt();
		else if (e.target.id == "ignorecase") toggle_ignorecase();
	}, false)

	// mouse-over for info
	// show
	window.addEventListener("mouseover", function(e) {
		var target = find_group(e.target);
		if (target) details.nodeValue = "Function: " + g_to_text(target);
	}, false)

	// clear
	window.addEventListener("mouseout", function(e) {
		var target = find_group(e.target);
		if (target) details.nodeValue = ' ';
	}, false)

	// ctrl-F for search
	// ctrl-I to toggle case-sensitive search
	window.addEventListener("keydown",function (e) {
		if (e.keyCode === 114 || (e.ctrlKey && e.keyCode === 70)) {
			e.preventDefault();
			search_prompt();
		}
		else if (e.ctrlKey && e.keyCode === 73) {
			e.preventDefault();
			toggle_ignorecase();
		}
	}, false)

	// functions
	function get_params() {
		var params = {};
		var paramsarr = window.location.search.substr(1).split('&');
		for (var i = 0; i < paramsarr.length; ++i) {
			var tmp = paramsarr[i].split("=");
			if (!tmp[0] || !tmp[1]) continue;
			params[tmp[0]]  = decodeURIComponent(tmp[1]);
		}
		return params;
	}
	function parse_params(params) {
		var uri = "?";
		for (var key in params) {
			uri += key + '=' + encodeURIComponent(params[key]) + '&';
		}
		if (uri.slice(-1) == "&")
			uri = uri.substring(0, uri.length - 1);
		if (uri == '?')
			uri = window.location.href.split('?')[0];
		return uri;
	}
	function find_child(node, selector) {
		var children = node.querySelectorAll(selector);
		if (children.length) return children[0];
	}
	function find_group(node) {
		var parent = node.parentElement;
		if (!parent) return;
		if (parent.id == "frames") return node;
		return find_group(parent);
	}
	function orig_save(e, attr, val) {
		if (e.attributes["_orig_" + attr] != undefined) return;
		if (e.attributes[attr] == undefined) return;
		if (val == undefined) val = e.attributes[attr].value;
		e.setAttribute("_orig_" + attr, val);
	}
	function orig_load(e, attr) {
		if (e.attributes["_orig_"+attr] == undefined) return;
		e.attributes[attr].value = e.attributes["_orig_" + attr].value;
		e.removeAttribute("_orig_"+attr);
	}
	function g_to_text(e) {
		var text = find_child(e, "title").firstChild.nodeValue;
		return (text)
	}
	function g_to_func(e) {
		var func = g_to_text(e);
		// if there's any manipulation we want to do to the function
		// name before it's searched, do it here before returning.
		return (func);
	}
	function update_text(e) {
		var r = find_child(e, "rect");
		var t = find_child(e, "text");
		var w = parseFloat(r.attributes.width.value) -3;
		var txt = find_child(e, "title").textContent.replace(/\([^(]*\)$/,"");
		t.attributes.x.value = parseFloat(r.attributes.x.value) + 3;

		// Smaller than this size won't fit anything
		if (w < 2 * 12 * 0.59) {
			t.textContent = "";
			return;
		}

		t.textContent = txt;
		var sl = t.getSubStringLength(0, txt.length);
		// check if only whitespace or if we can fit the entire string into width w
		if (/^ *$/.test(txt) || sl < w)
			return;

		// this isn't perfect, but gives a good starting point
		// and avoids calling getSubStringLength too often
		var start = Math.floor((w/sl) * txt.length);
		for (var x = start; x > 0; x = x-2) {
			if (t.getSubStringLength(0, x + 2) <= w) {
				t.textContent = txt.substring(0, x) + "..";
				return;
			}
		}
		t.textContent = "";
	}

	// zoom
	function zoom_reset(e) {
		if (e.attributes != undefined) {
			orig_load(e, "x");
			orig_load(e, "width");
		}
		if (e.childNodes == undefined) return;
		for (var i = 0, c = e.childNodes; i < c.length; i++) {
			zoom_reset(c[i]);
		}
	}
	function zoom_child(e, x, ratio) {
		if (e.attributes != undefined) {
			if (e.attributes.x != undefined) {
				orig_save(e, "x");
				e.attributes.x.value = (parseFloat(e.attributes.x.value) - x - 10) * ratio + 10;
				if (e.tagName == "text")
					e.attributes.x.value = find_child(e.parentNode, "rect[x]").attributes.x.value + 3;
			}
			if (e.attributes.width != undefined) {
				orig_save(e, "width");
				e.attributes.width.value = parseFloat(e.attributes.width.value) * ratio;
			}
		}

		if (e.childNodes == undefined) return;
		for (var i = 0, c = e.childNodes; i < c.length; i++) {
			zoom_child(c[i], x - 10, ratio);
		}
	}
	function zoom_parent(e) {
		if (e.attributes) {
			if (e.attributes.x != undefined) {
				orig_save(e, "x");
				e.attributes.x.value = 10;
			}
			if (e.attributes.width != undefined) {
				orig_save(e, "width");
				e.attributes.width.value = parseInt(svg.width.baseVal.value) - (10 * 2);
			}
		}
		if (e.childNodes == undefined) return;
		for (var i = 0, c = e.childNodes; i < c.length; i++) {
			zoom_parent(c[i]);
		}
	}
	function zoom(node) {
		var attr = find_child(node, "rect").attributes;
		var width = parseFloat(attr.width.value);
		var xmin = parseFloat(attr.x.value);
		var xmax = parseFloat(xmin + width);
		var ymin = parseFloat(attr.y.value);
		var ratio = (svg.width.baseVal.value - 2 * 10) / width;

		// XXX: Workaround for JavaScript float issues (fix me)
		var fudge = 0.0001;

		unzoombtn.classList.remove("hide");

		var el = document.getElementById("frames").children;
		for (var i = 0; i < el.length; i++) {
			var e = el[i];
			var a = find_child(e, "rect").attributes;
			var ex = parseFloat(a.x.value);
			var ew = parseFloat(a.width.value);
			var upstack;
			// Is it an ancestor
			if (0 == 0) {
				upstack = parseFloat(a.y.value) > ymin;
			} else {
				upstack = parseFloat(a.y.value) < ymin;
			}
			if (upstack) {
				// Direct ancestor
				if (ex <= xmin && (ex+ew+fudge) >= xmax) {
					e.classList.add("parent");
					zoom_parent(e);
					update_text(e);
				}
				// not in current path
				else
					e.classList.add("hide");
			}
			// Children maybe
			else {
				// no common path
				if (ex < xmin || ex + fudge >= xmax) {
					e.classList.add("hide");
				}
				else {
					zoom_child(e, xmin, ratio);
					update_text(e);
				}
			}
		}
		search();
	}
	function unzoom(dont_update_text) {
		unzoombtn.classList.add("hide");
		var el = document.getElementById("frames").children;
		for(var i = 0; i < el.length; i++) {
			el[i].classList.remove("parent");
			el[i].classList.remove("hide");
			zoom_reset(el[i]);
			if(!dont_update_text) update_text(el[i]);
		}
		search();
	}
	function clearzoom() {
		unzoom();

		// remove zoom state
		var params = get_params();
		if (params.x) delete params.x;
		if (params.y) delete params.y;
		history.replaceState(null, null, parse_params(params));
	}

	// search
	function toggle_ignorecase() {
		ignorecase = !ignorecase;
		if (ignorecase) {
			ignorecaseBtn.classList.add("show");
		} else {
			ignorecaseBtn.classList.remove("show");
		}
		reset_search();
		search();
	}
	function reset_search() {
		var el = document.querySelectorAll("#frames rect");
		for (var i = 0; i < el.length; i++) {
			orig_load(el[i], "fill")
		}
		var params = get_params();
		delete params.s;
		history.replaceState(null, null, parse_params(params));
	}
	function search_prompt() {
		if (!searching) {
			var term = prompt("Enter a search term (regexp " +
			    "allowed, eg: ^ext4_)"
			    + (ignorecase ? ", ignoring case" : "")
			    + "\nPress Ctrl-i to toggle case sensitivity", "");
			if (term != null) search(term);
		} else {
			reset_search();
			searching = 0;
			currentSearchTerm = null;
			searchbtn.classList.remove("show");
			searchbtn.firstChild.nodeValue = "Search"
			matchedtxt.classList.add("hide");
			matchedtxt.firstChild.nodeValue = ""
		}
	}
	function search(term) {
		if (term) currentSearchTerm = term;

		var re = new RegExp(currentSearchTerm, ignorecase ? 'i' : '');
		var el = document.getElementById("frames").children;
		var matches = new Object();
		var maxwidth = 0;
		for (var i = 0; i < el.length; i++) {
			var e = el[i];
			var func = g_to_func(e);
			var rect = find_child(e, "rect");
			if (func == null || rect == null)
				continue;

			// Save max width. Only works as we have a root frame
			var w = parseFloat(rect.attributes.width.value);
			if (w > maxwidth)
				maxwidth = w;

			if (func.match(re)) {
				// highlight
				var x = parseFloat(rect.attributes.x.value);
				orig_save(rect, "fill");
				rect.attributes.fill.value = "rgb(230,0,230)";

				// remember matches
				if (matches[x] == undefined) {
					matches[x] = w;
				} else {
					if (w > matches[x]) {
						// overwrite with parent
						matches[x] = w;
					}
				}
				searching = 1;
			}
		}
		if (!searching)
			return;
		var params = get_params();
		params.s = currentSearchTerm;
		history.replaceState(null, null, parse_params(params));

		searchbtn.classList.add("show");
		searchbtn.firstChild.nodeValue = "Reset Search";

		// calculate percent matched, excluding vertical overlap
		var count = 0;
		var lastx = -1;
		var lastw = 0;
		var keys = Array();
		for (k in matches) {
			if (matches.hasOwnProperty(k))
				keys.push(k);
		}
		// sort the matched frames by their x location
		// ascending, then width descending
		keys.sort(function(a, b){
			return a - b;
		});
		// Step through frames saving only the biggest bottom-up frames
		// thanks to the sort order. This relies on the tree property
		// where children are always smaller than their parents.
		var fudge = 0.0001;	// JavaScript floating point
		for (var k in keys) {
			var x = parseFloat(keys[k]);
			var w = matches[keys[k]];
			if (x >= lastx + lastw - fudge) {
				count += w;
				lastx = x;
				lastw = w;
			}
		}
		// display matched percent
		matchedtxt.classList.remove("hide");
		var pct = 100 * count / maxwidth;
		if (pct != 100) pct = pct.toFixed(1)
		matchedtxt.firstChild.nodeValue = "Matched: " + pct + "%";
	}
]]>
</script>
<rect x="0.0" y="0" width="1200.0" height="582.0" fill="url(#background)"  />
<text id="title" x="600.00" y="24" >Flame Graph</text>
<text id="details" x="10.00" y="565" > </text>
<text id="unzoom" x="10.00" y="24" class="hide">Reset Zoom</text>
<text id="search" x="1090.00" y="24" >Search</text>
<text id="ignorecase" x="1174.00" y="24" >ic</text>
<text id="matched" x="1090.00" y="565" > </text>
<g id="frames">
<g >
<title>charge_memcg (33,128,960 samples, 0.04%)</title><rect x="48.9" y="357" width="0.5" height="15.0" fill="rgb(210,79,50)" rx="2" ry="2" />
<text  x="51.95" y="367.5" ></text>
</g>
<g >
<title>console_unlock (34,000,142 samples, 0.04%)</title><rect x="768.2" y="149" width="0.4" height="15.0" fill="rgb(208,63,19)" rx="2" ry="2" />
<text  x="771.16" y="159.5" ></text>
</g>
<g >
<title>get_page_from_freelist (36,504,614,616 samples, 39.71%)</title><rect x="49.8" y="341" width="468.6" height="15.0" fill="rgb(237,180,50)" rx="2" ry="2" />
<text  x="52.84" y="351.5" >get_page_from_freelist</text>
</g>
<g >
<title>zap_huge_pmd (493,258,217 samples, 0.54%)</title><rect x="780.4" y="357" width="6.3" height="15.0" fill="rgb(242,13,38)" rx="2" ry="2" />
<text  x="783.36" y="367.5" ></text>
</g>
<g >
<title>sysvec_apic_timer_interrupt (8,862,300 samples, 0.01%)</title><rect x="779.2" y="453" width="0.1" height="15.0" fill="rgb(225,201,47)" rx="2" ry="2" />
<text  x="782.20" y="463.5" ></text>
</g>
<g >
<title>free_pages_and_swap_cache (442,682,102 samples, 0.48%)</title><rect x="781.0" y="325" width="5.7" height="15.0" fill="rgb(215,218,29)" rx="2" ry="2" />
<text  x="783.99" y="335.5" ></text>
</g>
<g >
<title>memcpy_erms (10,665,710 samples, 0.01%)</title><rect x="1189.5" y="261" width="0.1" height="15.0" fill="rgb(240,58,4)" rx="2" ry="2" />
<text  x="1192.47" y="271.5" ></text>
</g>
<g >
<title>__sysvec_apic_timer_interrupt (7,850,080 samples, 0.01%)</title><rect x="779.2" y="437" width="0.1" height="15.0" fill="rgb(242,121,25)" rx="2" ry="2" />
<text  x="782.20" y="447.5" ></text>
</g>
<g >
<title>obj_cgroup_charge_pages (70,097,928 samples, 0.08%)</title><rect x="776.3" y="309" width="0.9" height="15.0" fill="rgb(208,55,30)" rx="2" ry="2" />
<text  x="779.30" y="319.5" ></text>
</g>
<g >
<title>__memcg_kmem_charge_page (100,653,866 samples, 0.11%)</title><rect x="775.9" y="325" width="1.3" height="15.0" fill="rgb(214,202,20)" rx="2" ry="2" />
<text  x="778.95" y="335.5" ></text>
</g>
<g >
<title>tick_sched_handle.isra.0 (60,011,116 samples, 0.07%)</title><rect x="1189.1" y="389" width="0.8" height="15.0" fill="rgb(220,50,12)" rx="2" ry="2" />
<text  x="1192.09" y="399.5" ></text>
</g>
<g >
<title>free_unref_page (12,161,412 samples, 0.01%)</title><rect x="780.5" y="325" width="0.2" height="15.0" fill="rgb(248,143,53)" rx="2" ry="2" />
<text  x="783.52" y="335.5" ></text>
</g>
<g >
<title>page_counter_try_charge (40,226,415 samples, 0.04%)</title><rect x="776.3" y="293" width="0.6" height="15.0" fill="rgb(210,7,13)" rx="2" ry="2" />
<text  x="779.34" y="303.5" ></text>
</g>
<g >
<title>__alloc_pages (141,300,042 samples, 0.15%)</title><rect x="775.9" y="341" width="1.8" height="15.0" fill="rgb(210,36,51)" rx="2" ry="2" />
<text  x="778.91" y="351.5" ></text>
</g>
<g >
<title>_raw_spin_lock (81,908,572 samples, 0.09%)</title><rect x="46.7" y="389" width="1.1" height="15.0" fill="rgb(236,157,31)" rx="2" ry="2" />
<text  x="49.71" y="399.5" ></text>
</g>
<g >
<title>free_pcp_prepare (8,046,304 samples, 0.01%)</title><rect x="780.5" y="309" width="0.1" height="15.0" fill="rgb(232,8,2)" rx="2" ry="2" />
<text  x="783.53" y="319.5" ></text>
</g>
<g >
<title>sysvec_apic_timer_interrupt (82,606,697 samples, 0.09%)</title><rect x="502.1" y="277" width="1.0" height="15.0" fill="rgb(214,115,4)" rx="2" ry="2" />
<text  x="505.05" y="287.5" ></text>
</g>
<g >
<title>__hrtimer_run_queues (78,157,459 samples, 0.09%)</title><rect x="1188.9" y="421" width="1.0" height="15.0" fill="rgb(233,128,21)" rx="2" ry="2" />
<text  x="1191.86" y="431.5" ></text>
</g>
<g >
<title>irq_work_run_list (58,689,852 samples, 0.06%)</title><rect x="502.2" y="149" width="0.7" height="15.0" fill="rgb(243,40,52)" rx="2" ry="2" />
<text  x="505.16" y="159.5" ></text>
</g>
<g >
<title>__mod_lruvec_state (13,355,509 samples, 0.01%)</title><rect x="775.7" y="341" width="0.2" height="15.0" fill="rgb(250,120,46)" rx="2" ry="2" />
<text  x="778.72" y="351.5" ></text>
</g>
<g >
<title>get_mem_cgroup_from_objcg (10,780,161 samples, 0.01%)</title><rect x="776.2" y="309" width="0.1" height="15.0" fill="rgb(222,12,6)" rx="2" ry="2" />
<text  x="779.16" y="319.5" ></text>
</g>
<g >
<title>do_exit (558,461,975 samples, 0.61%)</title><rect x="779.5" y="453" width="7.2" height="15.0" fill="rgb(249,174,25)" rx="2" ry="2" />
<text  x="782.52" y="463.5" ></text>
</g>
<g >
<title>__mod_lruvec_page_state (11,541,080 samples, 0.01%)</title><rect x="775.4" y="357" width="0.1" height="15.0" fill="rgb(252,127,43)" rx="2" ry="2" />
<text  x="778.38" y="367.5" ></text>
</g>
<g >
<title>console_unlock (34,309,940 samples, 0.04%)</title><rect x="1189.2" y="293" width="0.4" height="15.0" fill="rgb(231,80,49)" rx="2" ry="2" />
<text  x="1192.17" y="303.5" ></text>
</g>
<g >
<title>exc_page_fault (56,997,228,086 samples, 62.00%)</title><rect x="46.4" y="453" width="731.6" height="15.0" fill="rgb(207,219,21)" rx="2" ry="2" />
<text  x="49.40" y="463.5" >exc_page_fault</text>
</g>
<g >
<title>free_transhuge_page (57,986,606 samples, 0.06%)</title><rect x="779.6" y="325" width="0.7" height="15.0" fill="rgb(232,215,26)" rx="2" ry="2" />
<text  x="782.57" y="335.5" ></text>
</g>
<g >
<title>__put_compound_page (60,575,250 samples, 0.07%)</title><rect x="779.5" y="341" width="0.8" height="15.0" fill="rgb(225,157,52)" rx="2" ry="2" />
<text  x="782.54" y="351.5" ></text>
</g>
<g >
<title>__hrtimer_run_queues (44,443,734 samples, 0.05%)</title><rect x="768.1" y="277" width="0.5" height="15.0" fill="rgb(239,18,32)" rx="2" ry="2" />
<text  x="771.08" y="287.5" ></text>
</g>
<g >
<title>all (91,935,247,787 samples, 100%)</title><rect x="10.0" y="533" width="1180.0" height="15.0" fill="rgb(221,34,9)" rx="2" ry="2" />
<text  x="13.00" y="543.5" ></text>
</g>
<g >
<title>free_pcp_prepare (52,909,942 samples, 0.06%)</title><rect x="779.6" y="277" width="0.7" height="15.0" fill="rgb(218,50,54)" rx="2" ry="2" />
<text  x="782.62" y="287.5" ></text>
</g>
<g >
<title>__hrtimer_run_queues (75,553,448 samples, 0.08%)</title><rect x="502.1" y="229" width="0.9" height="15.0" fill="rgb(212,179,35)" rx="2" ry="2" />
<text  x="505.07" y="239.5" ></text>
</g>
<g >
<title>prb_read_valid (32,877,279 samples, 0.04%)</title><rect x="768.2" y="133" width="0.4" height="15.0" fill="rgb(228,139,5)" rx="2" ry="2" />
<text  x="771.17" y="143.5" ></text>
</g>
<g >
<title>clear_page_erms (11,804,275 samples, 0.01%)</title><rect x="777.4" y="293" width="0.2" height="15.0" fill="rgb(247,95,38)" rx="2" ry="2" />
<text  x="780.42" y="303.5" ></text>
</g>
<g >
<title>_prb_read_valid (22,404,797 samples, 0.02%)</title><rect x="768.2" y="117" width="0.3" height="15.0" fill="rgb(243,148,26)" rx="2" ry="2" />
<text  x="771.17" y="127.5" ></text>
</g>
<g >
<title>irq_work_tick (39,913,152 samples, 0.04%)</title><rect x="1189.1" y="357" width="0.5" height="15.0" fill="rgb(251,213,51)" rx="2" ry="2" />
<text  x="1192.12" y="367.5" ></text>
</g>
<g >
<title>hrtimer_interrupt (78,800,219 samples, 0.09%)</title><rect x="502.1" y="245" width="1.0" height="15.0" fill="rgb(223,63,2)" rx="2" ry="2" />
<text  x="505.07" y="255.5" ></text>
</g>
<g >
<title>tick_sched_timer (77,179,190 samples, 0.08%)</title><rect x="1188.9" y="405" width="1.0" height="15.0" fill="rgb(230,177,24)" rx="2" ry="2" />
<text  x="1191.87" y="415.5" ></text>
</g>
<g >
<title>asm_sysvec_apic_timer_interrupt (47,004,646 samples, 0.05%)</title><rect x="768.1" y="341" width="0.6" height="15.0" fill="rgb(207,75,47)" rx="2" ry="2" />
<text  x="771.07" y="351.5" ></text>
</g>
<g >
<title>mmput (558,461,975 samples, 0.61%)</title><rect x="779.5" y="437" width="7.2" height="15.0" fill="rgb(252,80,32)" rx="2" ry="2" />
<text  x="782.52" y="447.5" ></text>
</g>
<g >
<title>_prb_read_valid (37,697,061 samples, 0.04%)</title><rect x="502.2" y="69" width="0.5" height="15.0" fill="rgb(215,82,9)" rx="2" ry="2" />
<text  x="505.22" y="79.5" ></text>
</g>
<g >
<title>hrtimer_interrupt (7,850,080 samples, 0.01%)</title><rect x="779.2" y="421" width="0.1" height="15.0" fill="rgb(238,14,24)" rx="2" ry="2" />
<text  x="782.20" y="431.5" ></text>
</g>
<g >
<title>rcu_all_qs (119,181,772 samples, 0.13%)</title><rect x="773.1" y="357" width="1.6" height="15.0" fill="rgb(237,143,7)" rx="2" ry="2" />
<text  x="776.14" y="367.5" ></text>
</g>
<g >
<title>irq_work_run_list (39,379,419 samples, 0.04%)</title><rect x="1189.1" y="341" width="0.5" height="15.0" fill="rgb(214,58,9)" rx="2" ry="2" />
<text  x="1192.12" y="351.5" ></text>
</g>
<g >
<title>do_huge_pmd_anonymous_page (56,874,050,262 samples, 61.86%)</title><rect x="47.8" y="389" width="730.0" height="15.0" fill="rgb(220,98,4)" rx="2" ry="2" />
<text  x="50.81" y="399.5" >do_huge_pmd_anonymous_page</text>
</g>
<g >
<title>page_counter_try_charge (15,492,553 samples, 0.02%)</title><rect x="49.2" y="325" width="0.2" height="15.0" fill="rgb(237,76,37)" rx="2" ry="2" />
<text  x="52.15" y="335.5" ></text>
</g>
<g >
<title>wake_up_klogd_work_func (57,601,959 samples, 0.06%)</title><rect x="502.2" y="117" width="0.7" height="15.0" fill="rgb(219,98,30)" rx="2" ry="2" />
<text  x="505.18" y="127.5" ></text>
</g>
<g >
<title>release_pages (60,932,346 samples, 0.07%)</title><rect x="779.5" y="357" width="0.8" height="15.0" fill="rgb(214,167,39)" rx="2" ry="2" />
<text  x="782.54" y="367.5" ></text>
</g>
<g >
<title>irq_work_single (58,181,670 samples, 0.06%)</title><rect x="502.2" y="133" width="0.7" height="15.0" fill="rgb(209,184,43)" rx="2" ry="2" />
<text  x="505.17" y="143.5" ></text>
</g>
<g >
<title>free_unref_page (396,994,946 samples, 0.43%)</title><rect x="781.6" y="245" width="5.1" height="15.0" fill="rgb(231,226,3)" rx="2" ry="2" />
<text  x="784.57" y="255.5" ></text>
</g>
<g >
<title>irq_work_tick (58,689,852 samples, 0.06%)</title><rect x="502.2" y="165" width="0.7" height="15.0" fill="rgb(220,117,43)" rx="2" ry="2" />
<text  x="505.16" y="175.5" ></text>
</g>
<g >
<title>__memset_avx2_erms (59,945,049,443 samples, 65.20%)</title><rect x="10.0" y="485" width="769.4" height="15.0" fill="rgb(254,100,1)" rx="2" ry="2" />
<text  x="13.01" y="495.5" >__memset_avx2_erms</text>
</g>
<g >
<title>entry_SYSCALL_64 (558,721,458 samples, 0.61%)</title><rect x="779.5" y="501" width="7.2" height="15.0" fill="rgb(219,97,38)" rx="2" ry="2" />
<text  x="782.52" y="511.5" ></text>
</g>
<g >
<title>irq_work_run_list (35,730,325 samples, 0.04%)</title><rect x="768.1" y="197" width="0.5" height="15.0" fill="rgb(213,159,11)" rx="2" ry="2" />
<text  x="771.14" y="207.5" ></text>
</g>
<g >
<title>__handle_mm_fault (56,967,352,756 samples, 61.96%)</title><rect x="46.6" y="405" width="731.2" height="15.0" fill="rgb(252,169,11)" rx="2" ry="2" />
<text  x="49.63" y="415.5" >__handle_mm_fault</text>
</g>
<g >
<title>tlb_flush_mmu (444,104,563 samples, 0.48%)</title><rect x="781.0" y="341" width="5.7" height="15.0" fill="rgb(236,85,49)" rx="2" ry="2" />
<text  x="783.99" y="351.5" ></text>
</g>
<g >
<title>handle_mm_fault (56,978,377,810 samples, 61.98%)</title><rect x="46.5" y="421" width="731.3" height="15.0" fill="rgb(251,81,37)" rx="2" ry="2" />
<text  x="49.49" y="431.5" >handle_mm_fault</text>
</g>
<g >
<title>release_pages (442,682,102 samples, 0.48%)</title><rect x="781.0" y="309" width="5.7" height="15.0" fill="rgb(212,122,16)" rx="2" ry="2" />
<text  x="783.99" y="319.5" ></text>
</g>
<g >
<title>event_seq_write (31,422,101,538 samples, 34.18%)</title><rect x="786.7" y="501" width="403.3" height="15.0" fill="rgb(236,166,37)" rx="2" ry="2" />
<text  x="789.69" y="511.5" >event_seq_write</text>
</g>
<g >
<title>tick_sched_handle.isra.0 (39,521,264 samples, 0.04%)</title><rect x="768.1" y="245" width="0.5" height="15.0" fill="rgb(245,92,20)" rx="2" ry="2" />
<text  x="771.14" y="255.5" ></text>
</g>
<g >
<title>_prb_read_valid (21,066,714 samples, 0.02%)</title><rect x="1189.2" y="261" width="0.3" height="15.0" fill="rgb(226,227,52)" rx="2" ry="2" />
<text  x="1192.19" y="271.5" ></text>
</g>
<g >
<title>sysvec_apic_timer_interrupt (84,647,600 samples, 0.09%)</title><rect x="1188.8" y="469" width="1.1" height="15.0" fill="rgb(249,3,27)" rx="2" ry="2" />
<text  x="1191.85" y="479.5" ></text>
</g>
<g >
<title>__cgroup_throttle_swaprate (8,468,350 samples, 0.01%)</title><rect x="48.2" y="373" width="0.1" height="15.0" fill="rgb(218,79,29)" rx="2" ry="2" />
<text  x="51.16" y="383.5" ></text>
</g>
<g >
<title>irq_work_single (35,471,101 samples, 0.04%)</title><rect x="768.1" y="181" width="0.5" height="15.0" fill="rgb(234,21,13)" rx="2" ry="2" />
<text  x="771.15" y="191.5" ></text>
</g>
<g >
<title>clear_subpage (22,464,879 samples, 0.02%)</title><rect x="774.7" y="373" width="0.3" height="15.0" fill="rgb(209,139,28)" rx="2" ry="2" />
<text  x="777.68" y="383.5" ></text>
</g>
<g >
<title>console_unlock (55,111,895 samples, 0.06%)</title><rect x="502.2" y="101" width="0.7" height="15.0" fill="rgb(205,221,37)" rx="2" ry="2" />
<text  x="505.19" y="111.5" ></text>
</g>
<g >
<title>lock_page_memcg (8,219,917 samples, 0.01%)</title><rect x="780.9" y="325" width="0.1" height="15.0" fill="rgb(223,40,6)" rx="2" ry="2" />
<text  x="783.87" y="335.5" ></text>
</g>
<g >
<title>free_pcp_prepare (390,312,723 samples, 0.42%)</title><rect x="781.6" y="229" width="5.0" height="15.0" fill="rgb(228,9,50)" rx="2" ry="2" />
<text  x="784.58" y="239.5" ></text>
</g>
<g >
<title>get_mem_cgroup_from_mm (15,915,058 samples, 0.02%)</title><rect x="49.4" y="357" width="0.2" height="15.0" fill="rgb(251,147,9)" rx="2" ry="2" />
<text  x="52.37" y="367.5" ></text>
</g>
<g >
<title>hrtimer_interrupt (81,269,676 samples, 0.09%)</title><rect x="1188.9" y="437" width="1.0" height="15.0" fill="rgb(224,181,42)" rx="2" ry="2" />
<text  x="1191.86" y="447.5" ></text>
</g>
<g >
<title>page_add_new_anon_rmap (12,842,616 samples, 0.01%)</title><rect x="775.4" y="373" width="0.1" height="15.0" fill="rgb(209,79,49)" rx="2" ry="2" />
<text  x="778.38" y="383.5" ></text>
</g>
<g >
<title>memcpy_erms (9,260,991 samples, 0.01%)</title><rect x="768.5" y="117" width="0.1" height="15.0" fill="rgb(205,210,10)" rx="2" ry="2" />
<text  x="771.47" y="127.5" ></text>
</g>
<g >
<title>lru_cache_add (31,230,185 samples, 0.03%)</title><rect x="775.0" y="357" width="0.4" height="15.0" fill="rgb(238,33,43)" rx="2" ry="2" />
<text  x="777.97" y="367.5" ></text>
</g>
<g >
<title>__cond_resched (36,807,546 samples, 0.04%)</title><rect x="519.4" y="357" width="0.5" height="15.0" fill="rgb(233,172,14)" rx="2" ry="2" />
<text  x="522.41" y="367.5" ></text>
</g>
<g >
<title>try_charge_memcg (18,830,147 samples, 0.02%)</title><rect x="49.1" y="341" width="0.3" height="15.0" fill="rgb(214,16,24)" rx="2" ry="2" />
<text  x="52.13" y="351.5" ></text>
</g>
<g >
<title>asm_sysvec_apic_timer_interrupt (104,134,589 samples, 0.11%)</title><rect x="778.0" y="469" width="1.3" height="15.0" fill="rgb(253,141,10)" rx="2" ry="2" />
<text  x="780.98" y="479.5" ></text>
</g>
<g >
<title>irq_work_tick (35,730,325 samples, 0.04%)</title><rect x="768.1" y="213" width="0.5" height="15.0" fill="rgb(230,0,13)" rx="2" ry="2" />
<text  x="771.14" y="223.5" ></text>
</g>
<g >
<title>free_transhuge_page (421,844,234 samples, 0.46%)</title><rect x="781.3" y="277" width="5.4" height="15.0" fill="rgb(220,228,20)" rx="2" ry="2" />
<text  x="784.25" y="287.5" ></text>
</g>
<g >
<title>scheduler_tick (8,587,663 samples, 0.01%)</title><rect x="502.9" y="165" width="0.1" height="15.0" fill="rgb(252,87,37)" rx="2" ry="2" />
<text  x="505.93" y="175.5" ></text>
</g>
<g >
<title>prep_compound_page (811,042,065 samples, 0.88%)</title><rect x="508.0" y="309" width="10.4" height="15.0" fill="rgb(228,13,31)" rx="2" ry="2" />
<text  x="510.97" y="319.5" ></text>
</g>
<g >
<title>uncharge_batch (15,949,760 samples, 0.02%)</title><rect x="781.4" y="229" width="0.2" height="15.0" fill="rgb(215,115,28)" rx="2" ry="2" />
<text  x="784.36" y="239.5" ></text>
</g>
<g >
<title>pte_alloc_one (171,182,307 samples, 0.19%)</title><rect x="775.6" y="373" width="2.2" height="15.0" fill="rgb(231,75,19)" rx="2" ry="2" />
<text  x="778.60" y="383.5" ></text>
</g>
<g >
<title>free_compound_page (414,015,492 samples, 0.45%)</title><rect x="781.4" y="261" width="5.3" height="15.0" fill="rgb(219,158,37)" rx="2" ry="2" />
<text  x="784.35" y="271.5" ></text>
</g>
<g >
<title>__sysvec_apic_timer_interrupt (45,898,481 samples, 0.05%)</title><rect x="768.1" y="309" width="0.6" height="15.0" fill="rgb(238,116,8)" rx="2" ry="2" />
<text  x="771.08" y="319.5" ></text>
</g>
<g >
<title>memcpy_erms (13,022,678 samples, 0.01%)</title><rect x="502.7" y="69" width="0.2" height="15.0" fill="rgb(222,218,42)" rx="2" ry="2" />
<text  x="505.73" y="79.5" ></text>
</g>
<g >
<title>tick_sched_timer (75,231,149 samples, 0.08%)</title><rect x="502.1" y="213" width="0.9" height="15.0" fill="rgb(233,197,44)" rx="2" ry="2" />
<text  x="505.07" y="223.5" ></text>
</g>
<g >
<title>__mod_lruvec_state (9,195,863 samples, 0.01%)</title><rect x="775.0" y="325" width="0.2" height="15.0" fill="rgb(231,208,28)" rx="2" ry="2" />
<text  x="778.05" y="335.5" ></text>
</g>
<g >
<title>get_page_from_freelist (26,787,049 samples, 0.03%)</title><rect x="777.3" y="325" width="0.4" height="15.0" fill="rgb(237,150,19)" rx="2" ry="2" />
<text  x="780.31" y="335.5" ></text>
</g>
<g >
<title>asm_sysvec_apic_timer_interrupt (91,139,962 samples, 0.10%)</title><rect x="1188.8" y="485" width="1.1" height="15.0" fill="rgb(234,174,32)" rx="2" ry="2" />
<text  x="1191.77" y="495.5" ></text>
</g>
<g >
<title>tick_do_update_jiffies64 (15,122,618 samples, 0.02%)</title><rect x="1188.9" y="373" width="0.2" height="15.0" fill="rgb(232,96,43)" rx="2" ry="2" />
<text  x="1191.90" y="383.5" ></text>
</g>
<g >
<title>unmap_single_vma (495,838,002 samples, 0.54%)</title><rect x="780.3" y="389" width="6.4" height="15.0" fill="rgb(207,194,21)" rx="2" ry="2" />
<text  x="783.32" y="399.5" ></text>
</g>
<g >
<title>asm_sysvec_apic_timer_interrupt (82,606,697 samples, 0.09%)</title><rect x="502.1" y="293" width="1.0" height="15.0" fill="rgb(243,213,54)" rx="2" ry="2" />
<text  x="505.05" y="303.5" ></text>
</g>
<g >
<title>__mem_cgroup_uncharge (16,574,245 samples, 0.02%)</title><rect x="781.4" y="245" width="0.2" height="15.0" fill="rgb(233,202,51)" rx="2" ry="2" />
<text  x="784.35" y="255.5" ></text>
</g>
<g >
<title>clear_page_erms (19,379,153,590 samples, 21.08%)</title><rect x="520.0" y="357" width="248.7" height="15.0" fill="rgb(220,82,9)" rx="2" ry="2" />
<text  x="522.97" y="367.5" >clear_page_erms</text>
</g>
<g >
<title>__page_cache_release (11,495,669 samples, 0.01%)</title><rect x="781.1" y="277" width="0.2" height="15.0" fill="rgb(235,119,36)" rx="2" ry="2" />
<text  x="784.10" y="287.5" ></text>
</g>
<g >
<title>update_process_times (59,477,464 samples, 0.06%)</title><rect x="1189.1" y="373" width="0.8" height="15.0" fill="rgb(242,148,15)" rx="2" ry="2" />
<text  x="1192.10" y="383.5" ></text>
</g>
<g >
<title>__sysvec_apic_timer_interrupt (79,770,183 samples, 0.09%)</title><rect x="502.1" y="261" width="1.0" height="15.0" fill="rgb(254,153,3)" rx="2" ry="2" />
<text  x="505.05" y="271.5" ></text>
</g>
<g >
<title>[unknown] (59,953,107,519 samples, 65.21%)</title><rect x="10.0" y="501" width="769.5" height="15.0" fill="rgb(206,169,41)" rx="2" ry="2" />
<text  x="13.00" y="511.5" >[unknown]</text>
</g>
<g >
<title>memcg_check_events (10,619,793 samples, 0.01%)</title><rect x="49.0" y="341" width="0.1" height="15.0" fill="rgb(237,75,10)" rx="2" ry="2" />
<text  x="51.99" y="351.5" ></text>
</g>
<g >
<title>desc_read_finalized_seq (13,192,621 samples, 0.01%)</title><rect x="502.5" y="53" width="0.1" height="15.0" fill="rgb(249,110,18)" rx="2" ry="2" />
<text  x="505.46" y="63.5" ></text>
</g>
<g >
<title>__mod_lruvec_page_state (22,604,256 samples, 0.02%)</title><rect x="775.6" y="357" width="0.3" height="15.0" fill="rgb(208,191,47)" rx="2" ry="2" />
<text  x="778.60" y="367.5" ></text>
</g>
<g >
<title>sysvec_apic_timer_interrupt (46,919,688 samples, 0.05%)</title><rect x="768.1" y="325" width="0.6" height="15.0" fill="rgb(229,131,42)" rx="2" ry="2" />
<text  x="771.08" y="335.5" ></text>
</g>
<g >
<title>clear_page_erms (35,277,873,684 samples, 38.37%)</title><rect x="50.4" y="309" width="452.8" height="15.0" fill="rgb(249,199,5)" rx="2" ry="2" />
<text  x="53.42" y="319.5" >clear_page_erms</text>
</g>
<g >
<title>kernel_init_free_pages.part.0 (370,108,947 samples, 0.40%)</title><rect x="503.2" y="309" width="4.8" height="15.0" fill="rgb(222,58,52)" rx="2" ry="2" />
<text  x="506.22" y="319.5" ></text>
</g>
<g >
<title>hrtimer_interrupt (45,898,481 samples, 0.05%)</title><rect x="768.1" y="293" width="0.6" height="15.0" fill="rgb(233,45,15)" rx="2" ry="2" />
<text  x="771.08" y="303.5" ></text>
</g>
<g >
<title>tlb_finish_mmu (61,288,162 samples, 0.07%)</title><rect x="779.5" y="405" width="0.8" height="15.0" fill="rgb(238,193,20)" rx="2" ry="2" />
<text  x="782.54" y="415.5" ></text>
</g>
<g >
<title>lru_cache_add_inactive_or_unevictable (31,750,179 samples, 0.03%)</title><rect x="775.0" y="373" width="0.4" height="15.0" fill="rgb(251,134,47)" rx="2" ry="2" />
<text  x="777.97" y="383.5" ></text>
</g>
<g >
<title>do_user_addr_fault (56,984,119,926 samples, 61.98%)</title><rect x="46.4" y="437" width="731.4" height="15.0" fill="rgb(218,18,47)" rx="2" ry="2" />
<text  x="49.42" y="447.5" >do_user_addr_fault</text>
</g>
<g >
<title>irq_work_single (38,845,860 samples, 0.04%)</title><rect x="1189.1" y="325" width="0.5" height="15.0" fill="rgb(240,152,48)" rx="2" ry="2" />
<text  x="1192.13" y="335.5" ></text>
</g>
<g >
<title>prep_new_page (13,257,482 samples, 0.01%)</title><rect x="777.4" y="309" width="0.2" height="15.0" fill="rgb(239,226,2)" rx="2" ry="2" />
<text  x="780.41" y="319.5" ></text>
</g>
<g >
<title>__sysvec_apic_timer_interrupt (81,892,205 samples, 0.09%)</title><rect x="1188.8" y="453" width="1.1" height="15.0" fill="rgb(213,204,45)" rx="2" ry="2" />
<text  x="1191.85" y="463.5" ></text>
</g>
<g >
<title>prb_read_valid (53,126,103 samples, 0.06%)</title><rect x="502.2" y="85" width="0.7" height="15.0" fill="rgb(240,33,17)" rx="2" ry="2" />
<text  x="505.21" y="95.5" ></text>
</g>
<g >
<title>__mem_cgroup_charge (50,585,944 samples, 0.06%)</title><rect x="48.9" y="373" width="0.7" height="15.0" fill="rgb(230,93,29)" rx="2" ry="2" />
<text  x="51.94" y="383.5" ></text>
</g>
<g >
<title>update_process_times (39,521,264 samples, 0.04%)</title><rect x="768.1" y="229" width="0.5" height="15.0" fill="rgb(228,213,53)" rx="2" ry="2" />
<text  x="771.14" y="239.5" ></text>
</g>
<g >
<title>tlb_flush_mmu (61,288,162 samples, 0.07%)</title><rect x="779.5" y="389" width="0.8" height="15.0" fill="rgb(209,158,2)" rx="2" ry="2" />
<text  x="782.54" y="399.5" ></text>
</g>
<g >
<title>__mod_node_page_state (8,154,419 samples, 0.01%)</title><rect x="775.4" y="325" width="0.1" height="15.0" fill="rgb(218,25,48)" rx="2" ry="2" />
<text  x="778.42" y="335.5" ></text>
</g>
<g >
<title>free_pages_and_swap_cache (61,021,800 samples, 0.07%)</title><rect x="779.5" y="373" width="0.8" height="15.0" fill="rgb(250,140,1)" rx="2" ry="2" />
<text  x="782.54" y="383.5" ></text>
</g>
<g >
<title>asm_sysvec_apic_timer_interrupt (12,732,974 samples, 0.01%)</title><rect x="50.3" y="309" width="0.1" height="15.0" fill="rgb(209,101,33)" rx="2" ry="2" />
<text  x="53.25" y="319.5" ></text>
</g>
<g >
<title>update_process_times (68,841,517 samples, 0.07%)</title><rect x="502.2" y="181" width="0.8" height="15.0" fill="rgb(232,140,21)" rx="2" ry="2" />
<text  x="505.15" y="191.5" ></text>
</g>
<g >
<title>alloc_pages (147,464,882 samples, 0.16%)</title><rect x="775.9" y="357" width="1.9" height="15.0" fill="rgb(237,89,35)" rx="2" ry="2" />
<text  x="778.89" y="367.5" ></text>
</g>
<g >
<title>update_wall_time (14,944,658 samples, 0.02%)</title><rect x="1188.9" y="357" width="0.2" height="15.0" fill="rgb(223,46,40)" rx="2" ry="2" />
<text  x="1191.90" y="367.5" ></text>
</g>
<g >
<title>prb_read_valid (33,243,504 samples, 0.04%)</title><rect x="1189.2" y="277" width="0.4" height="15.0" fill="rgb(245,191,52)" rx="2" ry="2" />
<text  x="1192.18" y="287.5" ></text>
</g>
<g >
<title>desc_read (9,800,922 samples, 0.01%)</title><rect x="502.5" y="37" width="0.1" height="15.0" fill="rgb(244,195,33)" rx="2" ry="2" />
<text  x="505.50" y="47.5" ></text>
</g>
<g >
<title>timekeeping_advance (14,588,840 samples, 0.02%)</title><rect x="1188.9" y="341" width="0.2" height="15.0" fill="rgb(245,47,44)" rx="2" ry="2" />
<text  x="1191.90" y="351.5" ></text>
</g>
<g >
<title>unmap_page_range (495,748,522 samples, 0.54%)</title><rect x="780.3" y="373" width="6.4" height="15.0" fill="rgb(239,188,51)" rx="2" ry="2" />
<text  x="783.32" y="383.5" ></text>
</g>
<g >
<title>__free_pages (22,350,644 samples, 0.02%)</title><rect x="780.4" y="341" width="0.3" height="15.0" fill="rgb(226,156,45)" rx="2" ry="2" />
<text  x="783.39" y="351.5" ></text>
</g>
<g >
<title>wake_up_klogd_work_func (35,384,771 samples, 0.04%)</title><rect x="768.1" y="165" width="0.5" height="15.0" fill="rgb(210,216,9)" rx="2" ry="2" />
<text  x="771.15" y="175.5" ></text>
</g>
<g >
<title>tick_sched_do_timer (16,100,922 samples, 0.02%)</title><rect x="1188.9" y="389" width="0.2" height="15.0" fill="rgb(217,200,28)" rx="2" ry="2" />
<text  x="1191.88" y="399.5" ></text>
</g>
<g >
<title>__mod_node_page_state (12,071,117 samples, 0.01%)</title><rect x="775.7" y="325" width="0.2" height="15.0" fill="rgb(238,94,12)" rx="2" ry="2" />
<text  x="778.74" y="335.5" ></text>
</g>
<g >
<title>exit_mmap (558,461,975 samples, 0.61%)</title><rect x="779.5" y="421" width="7.2" height="15.0" fill="rgb(205,192,49)" rx="2" ry="2" />
<text  x="782.52" y="431.5" ></text>
</g>
<g >
<title>__mod_lruvec_state (10,239,476 samples, 0.01%)</title><rect x="775.4" y="341" width="0.1" height="15.0" fill="rgb(211,150,17)" rx="2" ry="2" />
<text  x="778.39" y="351.5" ></text>
</g>
<g >
<title>clear_subpage (345,729,246 samples, 0.38%)</title><rect x="768.7" y="357" width="4.4" height="15.0" fill="rgb(212,67,53)" rx="2" ry="2" />
<text  x="771.70" y="367.5" ></text>
</g>
<g >
<title>__put_compound_page (440,630,328 samples, 0.48%)</title><rect x="781.0" y="293" width="5.7" height="15.0" fill="rgb(210,38,13)" rx="2" ry="2" />
<text  x="784.01" y="303.5" ></text>
</g>
<g >
<title>wake_up_klogd_work_func (37,511,993 samples, 0.04%)</title><rect x="1189.1" y="309" width="0.5" height="15.0" fill="rgb(207,119,43)" rx="2" ry="2" />
<text  x="1192.15" y="319.5" ></text>
</g>
<g >
<title>clear_huge_page (19,967,312,365 samples, 21.72%)</title><rect x="518.4" y="373" width="256.3" height="15.0" fill="rgb(213,158,16)" rx="2" ry="2" />
<text  x="521.39" y="383.5" >clear_huge_page</text>
</g>
<g >
<title>sysbench (91,935,247,787 samples, 100.00%)</title><rect x="10.0" y="517" width="1180.0" height="15.0" fill="rgb(230,190,42)" rx="2" ry="2" />
<text  x="13.00" y="527.5" >sysbench</text>
</g>
<g >
<title>do_syscall_64 (558,721,458 samples, 0.61%)</title><rect x="779.5" y="485" width="7.2" height="15.0" fill="rgb(230,161,45)" rx="2" ry="2" />
<text  x="782.52" y="495.5" ></text>
</g>
<g >
<title>free_unref_page (54,154,827 samples, 0.06%)</title><rect x="779.6" y="293" width="0.7" height="15.0" fill="rgb(213,204,29)" rx="2" ry="2" />
<text  x="782.62" y="303.5" ></text>
</g>
<g >
<title>[vmlinux] (558,721,458 samples, 0.61%)</title><rect x="779.5" y="469" width="7.2" height="15.0" fill="rgb(242,135,33)" rx="2" ry="2" />
<text  x="782.52" y="479.5" ></text>
</g>
<g >
<title>prep_new_page (36,475,595,283 samples, 39.68%)</title><rect x="50.2" y="325" width="468.2" height="15.0" fill="rgb(247,18,38)" rx="2" ry="2" />
<text  x="53.21" y="335.5" >prep_new_page</text>
</g>
<g >
<title>alloc_pages_vma (36,524,467,722 samples, 39.73%)</title><rect x="49.6" y="373" width="468.8" height="15.0" fill="rgb(251,126,27)" rx="2" ry="2" />
<text  x="52.59" y="383.5" >alloc_pages_vma</text>
</g>
<g >
<title>page_remove_rmap (20,639,944 samples, 0.02%)</title><rect x="780.7" y="341" width="0.3" height="15.0" fill="rgb(238,100,21)" rx="2" ry="2" />
<text  x="783.72" y="351.5" ></text>
</g>
<g >
<title>scheduler_tick (16,184,851 samples, 0.02%)</title><rect x="1189.7" y="357" width="0.2" height="15.0" fill="rgb(245,120,18)" rx="2" ry="2" />
<text  x="1192.65" y="367.5" ></text>
</g>
<g >
<title>unmap_vmas (495,838,002 samples, 0.54%)</title><rect x="780.3" y="405" width="6.4" height="15.0" fill="rgb(228,143,27)" rx="2" ry="2" />
<text  x="783.32" y="415.5" ></text>
</g>
<g >
<title>asm_exc_page_fault (59,822,748,933 samples, 65.07%)</title><rect x="10.1" y="469" width="767.9" height="15.0" fill="rgb(218,148,26)" rx="2" ry="2" />
<text  x="13.14" y="479.5" >asm_exc_page_fault</text>
</g>
<g >
<title>__pagevec_lru_add (30,274,440 samples, 0.03%)</title><rect x="775.0" y="341" width="0.4" height="15.0" fill="rgb(219,159,21)" rx="2" ry="2" />
<text  x="777.98" y="351.5" ></text>
</g>
<g >
<title>__cond_resched (47,632,137 samples, 0.05%)</title><rect x="48.3" y="373" width="0.6" height="15.0" fill="rgb(207,124,46)" rx="2" ry="2" />
<text  x="51.27" y="383.5" ></text>
</g>
<g >
<title>try_charge_memcg (24,907,740 samples, 0.03%)</title><rect x="776.9" y="293" width="0.3" height="15.0" fill="rgb(248,60,30)" rx="2" ry="2" />
<text  x="779.88" y="303.5" ></text>
</g>
<g >
<title>__alloc_pages (36,516,088,572 samples, 39.72%)</title><rect x="49.7" y="357" width="468.7" height="15.0" fill="rgb(237,109,46)" rx="2" ry="2" />
<text  x="52.70" y="367.5" >__alloc_pages</text>
</g>
<g >
<title>free_compound_page (57,096,970 samples, 0.06%)</title><rect x="779.6" y="309" width="0.7" height="15.0" fill="rgb(215,187,36)" rx="2" ry="2" />
<text  x="782.59" y="319.5" ></text>
</g>
<g >
<title>tick_sched_timer (44,272,010 samples, 0.05%)</title><rect x="768.1" y="261" width="0.5" height="15.0" fill="rgb(241,73,2)" rx="2" ry="2" />
<text  x="771.08" y="271.5" ></text>
</g>
<g >
<title>tick_sched_handle.isra.0 (69,168,346 samples, 0.08%)</title><rect x="502.1" y="197" width="0.9" height="15.0" fill="rgb(230,170,52)" rx="2" ry="2" />
<text  x="505.15" y="207.5" ></text>
</g>
</g>
</svg>
