<?xml version="1.0" standalone="no"?>
<!DOCTYPE svg PUBLIC "-//W3C//DTD SVG 1.1//EN" "http://www.w3.org/Graphics/SVG/1.1/DTD/svg11.dtd">
<svg version="1.1" width="1200" height="566" onload="init(evt)" viewBox="0 0 1200 566" xmlns="http://www.w3.org/2000/svg" xmlns:xlink="http://www.w3.org/1999/xlink">
<!-- Flame graph stack visualization. See https://github.com/brendangregg/FlameGraph for latest version, and http://www.brendangregg.com/flamegraphs.html for examples. -->
<!-- NOTES:  -->
<defs>
	<linearGradient id="background" y1="0" y2="1" x1="0" x2="0" >
		<stop stop-color="#eeeeee" offset="5%" />
		<stop stop-color="#eeeeb0" offset="95%" />
	</linearGradient>
</defs>
<style type="text/css">
	text { font-family:Verdana; font-size:12px; fill:rgb(0,0,0); }
	#search, #ignorecase { opacity:0.1; cursor:pointer; }
	#search:hover, #search.show, #ignorecase:hover, #ignorecase.show { opacity:1; }
	#subtitle { text-anchor:middle; font-color:rgb(160,160,160); }
	#title { text-anchor:middle; font-size:17px}
	#unzoom { cursor:pointer; }
	#frames > *:hover { stroke:black; stroke-width:0.5; cursor:pointer; }
	.hide { display:none; }
	.parent { opacity:0.5; }
</style>
<script type="text/ecmascript">
<![CDATA[
	"use strict";
	var details, searchbtn, unzoombtn, matchedtxt, svg, searching, currentSearchTerm, ignorecase, ignorecaseBtn;
	function init(evt) {
		details = document.getElementById("details").firstChild;
		searchbtn = document.getElementById("search");
		ignorecaseBtn = document.getElementById("ignorecase");
		unzoombtn = document.getElementById("unzoom");
		matchedtxt = document.getElementById("matched");
		svg = document.getElementsByTagName("svg")[0];
		searching = 0;
		currentSearchTerm = null;

		// use GET parameters to restore a flamegraphs state.
		var params = get_params();
		if (params.x && params.y)
			zoom(find_group(document.querySelector('[x="' + params.x + '"][y="' + params.y + '"]')));
                if (params.s) search(params.s);
	}

	// event listeners
	window.addEventListener("click", function(e) {
		var target = find_group(e.target);
		if (target) {
			if (target.nodeName == "a") {
				if (e.ctrlKey === false) return;
				e.preventDefault();
			}
			if (target.classList.contains("parent")) unzoom(true);
			zoom(target);
			if (!document.querySelector('.parent')) {
				// we have basically done a clearzoom so clear the url
				var params = get_params();
				if (params.x) delete params.x;
				if (params.y) delete params.y;
				history.replaceState(null, null, parse_params(params));
				unzoombtn.classList.add("hide");
				return;
			}

			// set parameters for zoom state
			var el = target.querySelector("rect");
			if (el && el.attributes && el.attributes.y && el.attributes._orig_x) {
				var params = get_params()
				params.x = el.attributes._orig_x.value;
				params.y = el.attributes.y.value;
				history.replaceState(null, null, parse_params(params));
			}
		}
		else if (e.target.id == "unzoom") clearzoom();
		else if (e.target.id == "search") search_prompt();
		else if (e.target.id == "ignorecase") toggle_ignorecase();
	}, false)

	// mouse-over for info
	// show
	window.addEventListener("mouseover", function(e) {
		var target = find_group(e.target);
		if (target) details.nodeValue = "Function: " + g_to_text(target);
	}, false)

	// clear
	window.addEventListener("mouseout", function(e) {
		var target = find_group(e.target);
		if (target) details.nodeValue = ' ';
	}, false)

	// ctrl-F for search
	// ctrl-I to toggle case-sensitive search
	window.addEventListener("keydown",function (e) {
		if (e.keyCode === 114 || (e.ctrlKey && e.keyCode === 70)) {
			e.preventDefault();
			search_prompt();
		}
		else if (e.ctrlKey && e.keyCode === 73) {
			e.preventDefault();
			toggle_ignorecase();
		}
	}, false)

	// functions
	function get_params() {
		var params = {};
		var paramsarr = window.location.search.substr(1).split('&');
		for (var i = 0; i < paramsarr.length; ++i) {
			var tmp = paramsarr[i].split("=");
			if (!tmp[0] || !tmp[1]) continue;
			params[tmp[0]]  = decodeURIComponent(tmp[1]);
		}
		return params;
	}
	function parse_params(params) {
		var uri = "?";
		for (var key in params) {
			uri += key + '=' + encodeURIComponent(params[key]) + '&';
		}
		if (uri.slice(-1) == "&")
			uri = uri.substring(0, uri.length - 1);
		if (uri == '?')
			uri = window.location.href.split('?')[0];
		return uri;
	}
	function find_child(node, selector) {
		var children = node.querySelectorAll(selector);
		if (children.length) return children[0];
	}
	function find_group(node) {
		var parent = node.parentElement;
		if (!parent) return;
		if (parent.id == "frames") return node;
		return find_group(parent);
	}
	function orig_save(e, attr, val) {
		if (e.attributes["_orig_" + attr] != undefined) return;
		if (e.attributes[attr] == undefined) return;
		if (val == undefined) val = e.attributes[attr].value;
		e.setAttribute("_orig_" + attr, val);
	}
	function orig_load(e, attr) {
		if (e.attributes["_orig_"+attr] == undefined) return;
		e.attributes[attr].value = e.attributes["_orig_" + attr].value;
		e.removeAttribute("_orig_"+attr);
	}
	function g_to_text(e) {
		var text = find_child(e, "title").firstChild.nodeValue;
		return (text)
	}
	function g_to_func(e) {
		var func = g_to_text(e);
		// if there's any manipulation we want to do to the function
		// name before it's searched, do it here before returning.
		return (func);
	}
	function update_text(e) {
		var r = find_child(e, "rect");
		var t = find_child(e, "text");
		var w = parseFloat(r.attributes.width.value) -3;
		var txt = find_child(e, "title").textContent.replace(/\([^(]*\)$/,"");
		t.attributes.x.value = parseFloat(r.attributes.x.value) + 3;

		// Smaller than this size won't fit anything
		if (w < 2 * 12 * 0.59) {
			t.textContent = "";
			return;
		}

		t.textContent = txt;
		var sl = t.getSubStringLength(0, txt.length);
		// check if only whitespace or if we can fit the entire string into width w
		if (/^ *$/.test(txt) || sl < w)
			return;

		// this isn't perfect, but gives a good starting point
		// and avoids calling getSubStringLength too often
		var start = Math.floor((w/sl) * txt.length);
		for (var x = start; x > 0; x = x-2) {
			if (t.getSubStringLength(0, x + 2) <= w) {
				t.textContent = txt.substring(0, x) + "..";
				return;
			}
		}
		t.textContent = "";
	}

	// zoom
	function zoom_reset(e) {
		if (e.attributes != undefined) {
			orig_load(e, "x");
			orig_load(e, "width");
		}
		if (e.childNodes == undefined) return;
		for (var i = 0, c = e.childNodes; i < c.length; i++) {
			zoom_reset(c[i]);
		}
	}
	function zoom_child(e, x, ratio) {
		if (e.attributes != undefined) {
			if (e.attributes.x != undefined) {
				orig_save(e, "x");
				e.attributes.x.value = (parseFloat(e.attributes.x.value) - x - 10) * ratio + 10;
				if (e.tagName == "text")
					e.attributes.x.value = find_child(e.parentNode, "rect[x]").attributes.x.value + 3;
			}
			if (e.attributes.width != undefined) {
				orig_save(e, "width");
				e.attributes.width.value = parseFloat(e.attributes.width.value) * ratio;
			}
		}

		if (e.childNodes == undefined) return;
		for (var i = 0, c = e.childNodes; i < c.length; i++) {
			zoom_child(c[i], x - 10, ratio);
		}
	}
	function zoom_parent(e) {
		if (e.attributes) {
			if (e.attributes.x != undefined) {
				orig_save(e, "x");
				e.attributes.x.value = 10;
			}
			if (e.attributes.width != undefined) {
				orig_save(e, "width");
				e.attributes.width.value = parseInt(svg.width.baseVal.value) - (10 * 2);
			}
		}
		if (e.childNodes == undefined) return;
		for (var i = 0, c = e.childNodes; i < c.length; i++) {
			zoom_parent(c[i]);
		}
	}
	function zoom(node) {
		var attr = find_child(node, "rect").attributes;
		var width = parseFloat(attr.width.value);
		var xmin = parseFloat(attr.x.value);
		var xmax = parseFloat(xmin + width);
		var ymin = parseFloat(attr.y.value);
		var ratio = (svg.width.baseVal.value - 2 * 10) / width;

		// XXX: Workaround for JavaScript float issues (fix me)
		var fudge = 0.0001;

		unzoombtn.classList.remove("hide");

		var el = document.getElementById("frames").children;
		for (var i = 0; i < el.length; i++) {
			var e = el[i];
			var a = find_child(e, "rect").attributes;
			var ex = parseFloat(a.x.value);
			var ew = parseFloat(a.width.value);
			var upstack;
			// Is it an ancestor
			if (0 == 0) {
				upstack = parseFloat(a.y.value) > ymin;
			} else {
				upstack = parseFloat(a.y.value) < ymin;
			}
			if (upstack) {
				// Direct ancestor
				if (ex <= xmin && (ex+ew+fudge) >= xmax) {
					e.classList.add("parent");
					zoom_parent(e);
					update_text(e);
				}
				// not in current path
				else
					e.classList.add("hide");
			}
			// Children maybe
			else {
				// no common path
				if (ex < xmin || ex + fudge >= xmax) {
					e.classList.add("hide");
				}
				else {
					zoom_child(e, xmin, ratio);
					update_text(e);
				}
			}
		}
		search();
	}
	function unzoom(dont_update_text) {
		unzoombtn.classList.add("hide");
		var el = document.getElementById("frames").children;
		for(var i = 0; i < el.length; i++) {
			el[i].classList.remove("parent");
			el[i].classList.remove("hide");
			zoom_reset(el[i]);
			if(!dont_update_text) update_text(el[i]);
		}
		search();
	}
	function clearzoom() {
		unzoom();

		// remove zoom state
		var params = get_params();
		if (params.x) delete params.x;
		if (params.y) delete params.y;
		history.replaceState(null, null, parse_params(params));
	}

	// search
	function toggle_ignorecase() {
		ignorecase = !ignorecase;
		if (ignorecase) {
			ignorecaseBtn.classList.add("show");
		} else {
			ignorecaseBtn.classList.remove("show");
		}
		reset_search();
		search();
	}
	function reset_search() {
		var el = document.querySelectorAll("#frames rect");
		for (var i = 0; i < el.length; i++) {
			orig_load(el[i], "fill")
		}
		var params = get_params();
		delete params.s;
		history.replaceState(null, null, parse_params(params));
	}
	function search_prompt() {
		if (!searching) {
			var term = prompt("Enter a search term (regexp " +
			    "allowed, eg: ^ext4_)"
			    + (ignorecase ? ", ignoring case" : "")
			    + "\nPress Ctrl-i to toggle case sensitivity", "");
			if (term != null) search(term);
		} else {
			reset_search();
			searching = 0;
			currentSearchTerm = null;
			searchbtn.classList.remove("show");
			searchbtn.firstChild.nodeValue = "Search"
			matchedtxt.classList.add("hide");
			matchedtxt.firstChild.nodeValue = ""
		}
	}
	function search(term) {
		if (term) currentSearchTerm = term;

		var re = new RegExp(currentSearchTerm, ignorecase ? 'i' : '');
		var el = document.getElementById("frames").children;
		var matches = new Object();
		var maxwidth = 0;
		for (var i = 0; i < el.length; i++) {
			var e = el[i];
			var func = g_to_func(e);
			var rect = find_child(e, "rect");
			if (func == null || rect == null)
				continue;

			// Save max width. Only works as we have a root frame
			var w = parseFloat(rect.attributes.width.value);
			if (w > maxwidth)
				maxwidth = w;

			if (func.match(re)) {
				// highlight
				var x = parseFloat(rect.attributes.x.value);
				orig_save(rect, "fill");
				rect.attributes.fill.value = "rgb(230,0,230)";

				// remember matches
				if (matches[x] == undefined) {
					matches[x] = w;
				} else {
					if (w > matches[x]) {
						// overwrite with parent
						matches[x] = w;
					}
				}
				searching = 1;
			}
		}
		if (!searching)
			return;
		var params = get_params();
		params.s = currentSearchTerm;
		history.replaceState(null, null, parse_params(params));

		searchbtn.classList.add("show");
		searchbtn.firstChild.nodeValue = "Reset Search";

		// calculate percent matched, excluding vertical overlap
		var count = 0;
		var lastx = -1;
		var lastw = 0;
		var keys = Array();
		for (k in matches) {
			if (matches.hasOwnProperty(k))
				keys.push(k);
		}
		// sort the matched frames by their x location
		// ascending, then width descending
		keys.sort(function(a, b){
			return a - b;
		});
		// Step through frames saving only the biggest bottom-up frames
		// thanks to the sort order. This relies on the tree property
		// where children are always smaller than their parents.
		var fudge = 0.0001;	// JavaScript floating point
		for (var k in keys) {
			var x = parseFloat(keys[k]);
			var w = matches[keys[k]];
			if (x >= lastx + lastw - fudge) {
				count += w;
				lastx = x;
				lastw = w;
			}
		}
		// display matched percent
		matchedtxt.classList.remove("hide");
		var pct = 100 * count / maxwidth;
		if (pct != 100) pct = pct.toFixed(1)
		matchedtxt.firstChild.nodeValue = "Matched: " + pct + "%";
	}
]]>
</script>
<rect x="0.0" y="0" width="1200.0" height="566.0" fill="url(#background)"  />
<text id="title" x="600.00" y="24" >Flame Graph</text>
<text id="details" x="10.00" y="549" > </text>
<text id="unzoom" x="10.00" y="24" class="hide">Reset Zoom</text>
<text id="search" x="1090.00" y="24" >Search</text>
<text id="ignorecase" x="1174.00" y="24" >ic</text>
<text id="matched" x="1090.00" y="549" > </text>
<g id="frames">
<g >
<title>__cond_resched (88,228,077 samples, 0.07%)</title><rect x="648.2" y="373" width="0.9" height="15.0" fill="rgb(210,159,31)" rx="2" ry="2" />
<text  x="651.24" y="383.5" ></text>
</g>
<g >
<title>tick_sched_handle.isra.0 (51,008,540 samples, 0.04%)</title><rect x="1180.8" y="245" width="0.5" height="15.0" fill="rgb(242,215,24)" rx="2" ry="2" />
<text  x="1183.85" y="255.5" ></text>
</g>
<g >
<title>free_pcp_prepare (391,177,921 samples, 0.31%)</title><rect x="12.0" y="197" width="3.6" height="15.0" fill="rgb(218,201,29)" rx="2" ry="2" />
<text  x="14.99" y="207.5" ></text>
</g>
<g >
<title>try_charge_memcg (16,337,882 samples, 0.01%)</title><rect x="1186.3" y="293" width="0.1" height="15.0" fill="rgb(216,177,8)" rx="2" ry="2" />
<text  x="1189.27" y="303.5" ></text>
</g>
<g >
<title>clear_subpage (328,922,245 samples, 0.26%)</title><rect x="1181.3" y="357" width="3.1" height="15.0" fill="rgb(208,127,17)" rx="2" ry="2" />
<text  x="1184.35" y="367.5" ></text>
</g>
<g >
<title>update_process_times (51,008,540 samples, 0.04%)</title><rect x="1180.8" y="229" width="0.5" height="15.0" fill="rgb(214,86,8)" rx="2" ry="2" />
<text  x="1183.85" y="239.5" ></text>
</g>
<g >
<title>__hrtimer_run_queues (228,554,664 samples, 0.18%)</title><rect x="1187.0" y="405" width="2.2" height="15.0" fill="rgb(219,81,37)" rx="2" ry="2" />
<text  x="1190.03" y="415.5" ></text>
</g>
<g >
<title>do_huge_pmd_anonymous_page (57,659,378,264 samples, 45.66%)</title><rect x="648.0" y="389" width="538.7" height="15.0" fill="rgb(245,223,9)" rx="2" ry="2" />
<text  x="651.00" y="399.5" >do_huge_pmd_anonymous_page</text>
</g>
<g >
<title>asm_sysvec_apic_timer_interrupt (241,118,551 samples, 0.19%)</title><rect x="1187.0" y="469" width="2.2" height="15.0" fill="rgb(251,38,34)" rx="2" ry="2" />
<text  x="1189.98" y="479.5" ></text>
</g>
<g >
<title>read (54,041,546 samples, 0.04%)</title><rect x="1189.5" y="485" width="0.5" height="15.0" fill="rgb(208,220,33)" rx="2" ry="2" />
<text  x="1192.49" y="495.5" ></text>
</g>
<g >
<title>kernfs_fop_read_iter (53,692,497 samples, 0.04%)</title><rect x="1189.5" y="373" width="0.5" height="15.0" fill="rgb(232,21,12)" rx="2" ry="2" />
<text  x="1192.49" y="383.5" ></text>
</g>
<g >
<title>sysfs_kf_bin_read (52,032,598 samples, 0.04%)</title><rect x="1189.5" y="357" width="0.5" height="15.0" fill="rgb(222,81,24)" rx="2" ry="2" />
<text  x="1192.50" y="367.5" ></text>
</g>
<g >
<title>unmap_vmas (495,602,210 samples, 0.39%)</title><rect x="11.1" y="373" width="4.6" height="15.0" fill="rgb(226,163,39)" rx="2" ry="2" />
<text  x="14.10" y="383.5" ></text>
</g>
<g >
<title>clear_page_erms (19,302,137,096 samples, 15.28%)</title><rect x="1001.0" y="357" width="180.3" height="15.0" fill="rgb(220,123,54)" rx="2" ry="2" />
<text  x="1004.00" y="367.5" >clear_page_erms</text>
</g>
<g >
<title>_prb_read_valid (28,399,663 samples, 0.02%)</title><rect x="1180.9" y="117" width="0.2" height="15.0" fill="rgb(224,214,42)" rx="2" ry="2" />
<text  x="1183.87" y="127.5" ></text>
</g>
<g >
<title>free_unref_page (54,875,342 samples, 0.04%)</title><rect x="10.6" y="261" width="0.5" height="15.0" fill="rgb(247,11,8)" rx="2" ry="2" />
<text  x="13.58" y="271.5" ></text>
</g>
<g >
<title>try_charge_memcg (14,581,257 samples, 0.01%)</title><rect x="649.2" y="341" width="0.1" height="15.0" fill="rgb(213,33,53)" rx="2" ry="2" />
<text  x="652.19" y="351.5" ></text>
</g>
<g >
<title>obj_cgroup_charge_pages (47,262,001 samples, 0.04%)</title><rect x="1186.0" y="309" width="0.4" height="15.0" fill="rgb(239,80,8)" rx="2" ry="2" />
<text  x="1188.99" y="319.5" ></text>
</g>
<g >
<title>memcpy_erms (24,836,829 samples, 0.02%)</title><rect x="990.9" y="69" width="0.2" height="15.0" fill="rgb(248,204,16)" rx="2" ry="2" />
<text  x="993.91" y="79.5" ></text>
</g>
<g >
<title>__hrtimer_run_queues (54,339,410 samples, 0.04%)</title><rect x="1180.8" y="277" width="0.5" height="15.0" fill="rgb(237,163,4)" rx="2" ry="2" />
<text  x="1183.82" y="287.5" ></text>
</g>
<g >
<title>free_pages_and_swap_cache (443,147,808 samples, 0.35%)</title><rect x="11.6" y="293" width="4.1" height="15.0" fill="rgb(222,36,14)" rx="2" ry="2" />
<text  x="14.57" y="303.5" ></text>
</g>
<g >
<title>wake_up_klogd_work_func (80,126,594 samples, 0.06%)</title><rect x="990.4" y="117" width="0.8" height="15.0" fill="rgb(232,63,16)" rx="2" ry="2" />
<text  x="993.41" y="127.5" ></text>
</g>
<g >
<title>tlb_finish_mmu (61,739,944 samples, 0.05%)</title><rect x="10.5" y="373" width="0.6" height="15.0" fill="rgb(226,73,11)" rx="2" ry="2" />
<text  x="13.52" y="383.5" ></text>
</g>
<g >
<title>desc_read_finalized_seq (42,592,146 samples, 0.03%)</title><rect x="1188.0" y="229" width="0.4" height="15.0" fill="rgb(240,211,4)" rx="2" ry="2" />
<text  x="1190.99" y="239.5" ></text>
</g>
<g >
<title>desc_read (12,461,099 samples, 0.01%)</title><rect x="990.7" y="37" width="0.1" height="15.0" fill="rgb(221,39,43)" rx="2" ry="2" />
<text  x="993.73" y="47.5" ></text>
</g>
<g >
<title>asm_sysvec_apic_timer_interrupt (102,156,209 samples, 0.08%)</title><rect x="990.3" y="293" width="1.0" height="15.0" fill="rgb(253,26,29)" rx="2" ry="2" />
<text  x="993.33" y="303.5" ></text>
</g>
<g >
<title>tick_sched_timer (227,211,936 samples, 0.18%)</title><rect x="1187.0" y="389" width="2.2" height="15.0" fill="rgb(250,11,22)" rx="2" ry="2" />
<text  x="1190.04" y="399.5" ></text>
</g>
<g >
<title>unmap_region (558,058,422 samples, 0.44%)</title><rect x="10.5" y="389" width="5.2" height="15.0" fill="rgb(234,182,3)" rx="2" ry="2" />
<text  x="13.51" y="399.5" ></text>
</g>
<g >
<title>page_add_new_anon_rmap (13,115,470 samples, 0.01%)</title><rect x="1185.6" y="373" width="0.1" height="15.0" fill="rgb(218,45,11)" rx="2" ry="2" />
<text  x="1188.56" y="383.5" ></text>
</g>
<g >
<title>vfs_read (53,954,998 samples, 0.04%)</title><rect x="1189.5" y="405" width="0.5" height="15.0" fill="rgb(212,228,53)" rx="2" ry="2" />
<text  x="1192.49" y="415.5" ></text>
</g>
<g >
<title>pci_read (50,552,050 samples, 0.04%)</title><rect x="1189.5" y="309" width="0.5" height="15.0" fill="rgb(240,196,15)" rx="2" ry="2" />
<text  x="1192.52" y="319.5" ></text>
</g>
<g >
<title>console_unlock (76,793,320 samples, 0.06%)</title><rect x="990.4" y="101" width="0.7" height="15.0" fill="rgb(213,175,35)" rx="2" ry="2" />
<text  x="993.43" y="111.5" ></text>
</g>
<g >
<title>__mod_lruvec_page_state (12,836,792 samples, 0.01%)</title><rect x="1185.7" y="357" width="0.1" height="15.0" fill="rgb(223,177,7)" rx="2" ry="2" />
<text  x="1188.69" y="367.5" ></text>
</g>
<g >
<title>desc_read_finalized_seq (16,233,945 samples, 0.01%)</title><rect x="990.7" y="53" width="0.1" height="15.0" fill="rgb(245,57,53)" rx="2" ry="2" />
<text  x="993.70" y="63.5" ></text>
</g>
<g >
<title>update_process_times (216,057,319 samples, 0.17%)</title><rect x="1187.1" y="357" width="2.1" height="15.0" fill="rgb(227,24,50)" rx="2" ry="2" />
<text  x="1190.15" y="367.5" ></text>
</g>
<g >
<title>do_filp_open (15,475,337 samples, 0.01%)</title><rect x="10.1" y="373" width="0.2" height="15.0" fill="rgb(239,170,35)" rx="2" ry="2" />
<text  x="13.13" y="383.5" ></text>
</g>
<g >
<title>sysvec_apic_timer_interrupt (56,791,999 samples, 0.04%)</title><rect x="1180.8" y="325" width="0.5" height="15.0" fill="rgb(206,174,28)" rx="2" ry="2" />
<text  x="1183.81" y="335.5" ></text>
</g>
<g >
<title>memcpy_erms (44,210,976 samples, 0.04%)</title><rect x="1188.6" y="245" width="0.4" height="15.0" fill="rgb(218,48,10)" rx="2" ry="2" />
<text  x="1191.60" y="255.5" ></text>
</g>
<g >
<title>hrtimer_interrupt (100,665,656 samples, 0.08%)</title><rect x="990.3" y="245" width="1.0" height="15.0" fill="rgb(245,166,37)" rx="2" ry="2" />
<text  x="993.33" y="255.5" ></text>
</g>
<g >
<title>__sysvec_apic_timer_interrupt (233,458,876 samples, 0.18%)</title><rect x="1187.0" y="437" width="2.2" height="15.0" fill="rgb(205,210,38)" rx="2" ry="2" />
<text  x="1190.03" y="447.5" ></text>
</g>
<g >
<title>__vm_munmap (558,058,422 samples, 0.44%)</title><rect x="10.5" y="421" width="5.2" height="15.0" fill="rgb(214,215,30)" rx="2" ry="2" />
<text  x="13.51" y="431.5" ></text>
</g>
<g >
<title>irq_work_single (46,274,948 samples, 0.04%)</title><rect x="1180.9" y="181" width="0.4" height="15.0" fill="rgb(216,62,30)" rx="2" ry="2" />
<text  x="1183.85" y="191.5" ></text>
</g>
<g >
<title>tick_sched_timer (53,813,374 samples, 0.04%)</title><rect x="1180.8" y="261" width="0.5" height="15.0" fill="rgb(206,122,9)" rx="2" ry="2" />
<text  x="1183.82" y="271.5" ></text>
</g>
<g >
<title>__put_compound_page (61,115,066 samples, 0.05%)</title><rect x="10.5" y="309" width="0.6" height="15.0" fill="rgb(230,18,44)" rx="2" ry="2" />
<text  x="13.52" y="319.5" ></text>
</g>
<g >
<title>console_unlock (44,695,014 samples, 0.04%)</title><rect x="1180.9" y="149" width="0.4" height="15.0" fill="rgb(243,199,6)" rx="2" ry="2" />
<text  x="1183.86" y="159.5" ></text>
</g>
<g >
<title>kernel_init_free_pages.part.0 (422,061,429 samples, 0.33%)</title><rect x="991.3" y="309" width="3.9" height="15.0" fill="rgb(223,40,40)" rx="2" ry="2" />
<text  x="994.30" y="319.5" ></text>
</g>
<g >
<title>__free_pages (22,882,115 samples, 0.02%)</title><rect x="11.1" y="309" width="0.3" height="15.0" fill="rgb(207,36,15)" rx="2" ry="2" />
<text  x="14.14" y="319.5" ></text>
</g>
<g >
<title>tlb_flush_mmu (61,739,944 samples, 0.05%)</title><rect x="10.5" y="357" width="0.6" height="15.0" fill="rgb(239,176,42)" rx="2" ry="2" />
<text  x="13.52" y="367.5" ></text>
</g>
<g >
<title>sysvec_apic_timer_interrupt (102,068,339 samples, 0.08%)</title><rect x="990.3" y="277" width="1.0" height="15.0" fill="rgb(222,7,46)" rx="2" ry="2" />
<text  x="993.33" y="287.5" ></text>
</g>
<g >
<title>unmap_page_range (495,423,475 samples, 0.39%)</title><rect x="11.1" y="341" width="4.6" height="15.0" fill="rgb(245,13,11)" rx="2" ry="2" />
<text  x="14.10" y="351.5" ></text>
</g>
<g >
<title>prep_compound_page (473,291,323 samples, 0.37%)</title><rect x="995.2" y="309" width="4.5" height="15.0" fill="rgb(251,93,54)" rx="2" ry="2" />
<text  x="998.24" y="319.5" ></text>
</g>
<g >
<title>_prb_read_valid (136,710,237 samples, 0.11%)</title><rect x="1187.3" y="245" width="1.2" height="15.0" fill="rgb(207,168,39)" rx="2" ry="2" />
<text  x="1190.27" y="255.5" ></text>
</g>
<g >
<title>__mem_cgroup_uncharge (15,835,946 samples, 0.01%)</title><rect x="11.8" y="213" width="0.2" height="15.0" fill="rgb(225,26,49)" rx="2" ry="2" />
<text  x="14.83" y="223.5" ></text>
</g>
<g >
<title>prep_new_page (37,434,158,789 samples, 29.64%)</title><rect x="649.9" y="325" width="349.8" height="15.0" fill="rgb(223,172,17)" rx="2" ry="2" />
<text  x="652.90" y="335.5" >prep_new_page</text>
</g>
<g >
<title>do_syscall_64 (558,058,422 samples, 0.44%)</title><rect x="10.5" y="453" width="5.2" height="15.0" fill="rgb(248,3,21)" rx="2" ry="2" />
<text  x="13.51" y="463.5" ></text>
</g>
<g >
<title>__alloc_pages (37,490,610,005 samples, 29.69%)</title><rect x="649.5" y="357" width="350.3" height="15.0" fill="rgb(230,54,45)" rx="2" ry="2" />
<text  x="652.51" y="367.5" >__alloc_pages</text>
</g>
<g >
<title>path_openat (15,387,829 samples, 0.01%)</title><rect x="10.1" y="357" width="0.2" height="15.0" fill="rgb(233,182,45)" rx="2" ry="2" />
<text  x="13.13" y="367.5" ></text>
</g>
<g >
<title>pci_conf1_read (50,552,050 samples, 0.04%)</title><rect x="1189.5" y="277" width="0.5" height="15.0" fill="rgb(216,150,21)" rx="2" ry="2" />
<text  x="1192.52" y="287.5" ></text>
</g>
<g >
<title>_raw_spin_lock (47,517,704 samples, 0.04%)</title><rect x="647.5" y="389" width="0.5" height="15.0" fill="rgb(216,193,2)" rx="2" ry="2" />
<text  x="650.53" y="399.5" ></text>
</g>
<g >
<title>irq_work_tick (46,274,948 samples, 0.04%)</title><rect x="1180.9" y="213" width="0.4" height="15.0" fill="rgb(205,69,9)" rx="2" ry="2" />
<text  x="1183.85" y="223.5" ></text>
</g>
<g >
<title>__mod_lruvec_page_state (11,539,568 samples, 0.01%)</title><rect x="1185.6" y="357" width="0.1" height="15.0" fill="rgb(252,176,43)" rx="2" ry="2" />
<text  x="1188.56" y="367.5" ></text>
</g>
<g >
<title>do_sys_open (16,173,468 samples, 0.01%)</title><rect x="10.1" y="405" width="0.2" height="15.0" fill="rgb(247,54,35)" rx="2" ry="2" />
<text  x="13.13" y="415.5" ></text>
</g>
<g >
<title>tick_sched_handle.isra.0 (90,744,560 samples, 0.07%)</title><rect x="990.4" y="197" width="0.8" height="15.0" fill="rgb(235,103,14)" rx="2" ry="2" />
<text  x="993.40" y="207.5" ></text>
</g>
<g >
<title>_prb_read_valid (47,655,601 samples, 0.04%)</title><rect x="990.5" y="69" width="0.4" height="15.0" fill="rgb(225,199,19)" rx="2" ry="2" />
<text  x="993.45" y="79.5" ></text>
</g>
<g >
<title>irq_work_single (202,999,183 samples, 0.16%)</title><rect x="1187.2" y="309" width="1.9" height="15.0" fill="rgb(249,183,7)" rx="2" ry="2" />
<text  x="1190.17" y="319.5" ></text>
</g>
<g >
<title>[unknown] (39,872,434 samples, 0.03%)</title><rect x="10.0" y="485" width="0.4" height="15.0" fill="rgb(229,213,8)" rx="2" ry="2" />
<text  x="13.02" y="495.5" ></text>
</g>
<g >
<title>gups_vanilla (126,291,273,404 samples, 100.00%)</title><rect x="10.0" y="501" width="1180.0" height="15.0" fill="rgb(208,167,29)" rx="2" ry="2" />
<text  x="13.00" y="511.5" >gups_vanilla</text>
</g>
<g >
<title>irq_work_tick (80,564,610 samples, 0.06%)</title><rect x="990.4" y="165" width="0.8" height="15.0" fill="rgb(225,69,36)" rx="2" ry="2" />
<text  x="993.41" y="175.5" ></text>
</g>
<g >
<title>entry_SYSCALL_64 (558,058,422 samples, 0.44%)</title><rect x="10.5" y="469" width="5.2" height="15.0" fill="rgb(220,63,47)" rx="2" ry="2" />
<text  x="13.51" y="479.5" ></text>
</g>
<g >
<title>irq_work_run_list (203,086,910 samples, 0.16%)</title><rect x="1187.2" y="325" width="1.9" height="15.0" fill="rgb(223,140,48)" rx="2" ry="2" />
<text  x="1190.17" y="335.5" ></text>
</g>
<g >
<title>irq_work_run_list (80,477,066 samples, 0.06%)</title><rect x="990.4" y="149" width="0.8" height="15.0" fill="rgb(240,67,39)" rx="2" ry="2" />
<text  x="993.41" y="159.5" ></text>
</g>
<g >
<title>irq_work_single (80,302,449 samples, 0.06%)</title><rect x="990.4" y="133" width="0.8" height="15.0" fill="rgb(249,8,36)" rx="2" ry="2" />
<text  x="993.41" y="143.5" ></text>
</g>
<g >
<title>tick_sched_handle.isra.0 (216,595,187 samples, 0.17%)</title><rect x="1187.1" y="373" width="2.1" height="15.0" fill="rgb(211,210,43)" rx="2" ry="2" />
<text  x="1190.14" y="383.5" ></text>
</g>
<g >
<title>hrtimer_interrupt (55,828,555 samples, 0.04%)</title><rect x="1180.8" y="293" width="0.5" height="15.0" fill="rgb(248,139,51)" rx="2" ry="2" />
<text  x="1183.82" y="303.5" ></text>
</g>
<g >
<title>free_pages_and_swap_cache (61,472,217 samples, 0.05%)</title><rect x="10.5" y="341" width="0.6" height="15.0" fill="rgb(226,71,44)" rx="2" ry="2" />
<text  x="13.52" y="351.5" ></text>
</g>
<g >
<title>__do_munmap (558,058,422 samples, 0.44%)</title><rect x="10.5" y="405" width="5.2" height="15.0" fill="rgb(249,227,30)" rx="2" ry="2" />
<text  x="13.51" y="415.5" ></text>
</g>
<g >
<title>hrtimer_interrupt (232,926,914 samples, 0.18%)</title><rect x="1187.0" y="421" width="2.2" height="15.0" fill="rgb(246,41,42)" rx="2" ry="2" />
<text  x="1190.03" y="431.5" ></text>
</g>
<g >
<title>__hrtimer_run_queues (98,207,644 samples, 0.08%)</title><rect x="990.3" y="229" width="0.9" height="15.0" fill="rgb(245,92,31)" rx="2" ry="2" />
<text  x="993.33" y="239.5" ></text>
</g>
<g >
<title>asm_sysvec_apic_timer_interrupt (56,791,999 samples, 0.04%)</title><rect x="1180.8" y="341" width="0.5" height="15.0" fill="rgb(221,206,52)" rx="2" ry="2" />
<text  x="1183.81" y="351.5" ></text>
</g>
<g >
<title>irq_work_run_list (46,274,948 samples, 0.04%)</title><rect x="1180.9" y="197" width="0.4" height="15.0" fill="rgb(244,134,16)" rx="2" ry="2" />
<text  x="1183.85" y="207.5" ></text>
</g>
<g >
<title>all (126,291,273,404 samples, 100%)</title><rect x="10.0" y="517" width="1180.0" height="15.0" fill="rgb(246,100,4)" rx="2" ry="2" />
<text  x="13.00" y="527.5" ></text>
</g>
<g >
<title>page_counter_try_charge (12,919,058 samples, 0.01%)</title><rect x="649.2" y="325" width="0.1" height="15.0" fill="rgb(214,112,34)" rx="2" ry="2" />
<text  x="652.20" y="335.5" ></text>
</g>
<g >
<title>free_transhuge_page (58,622,824 samples, 0.05%)</title><rect x="10.5" y="293" width="0.6" height="15.0" fill="rgb(221,81,44)" rx="2" ry="2" />
<text  x="13.55" y="303.5" ></text>
</g>
<g >
<title>wake_up_klogd_work_func (46,099,167 samples, 0.04%)</title><rect x="1180.9" y="165" width="0.4" height="15.0" fill="rgb(245,69,47)" rx="2" ry="2" />
<text  x="1183.86" y="175.5" ></text>
</g>
<g >
<title>desc_read (30,500,946 samples, 0.02%)</title><rect x="1188.1" y="213" width="0.3" height="15.0" fill="rgb(224,198,40)" rx="2" ry="2" />
<text  x="1191.11" y="223.5" ></text>
</g>
<g >
<title>entry_SYSCALL_64 (54,041,546 samples, 0.04%)</title><rect x="1189.5" y="469" width="0.5" height="15.0" fill="rgb(224,124,43)" rx="2" ry="2" />
<text  x="1192.49" y="479.5" ></text>
</g>
<g >
<title>irq_work_tick (203,266,917 samples, 0.16%)</title><rect x="1187.2" y="341" width="1.9" height="15.0" fill="rgb(224,196,6)" rx="2" ry="2" />
<text  x="1190.17" y="351.5" ></text>
</g>
<g >
<title>page_remove_rmap (19,838,874 samples, 0.02%)</title><rect x="11.4" y="309" width="0.2" height="15.0" fill="rgb(238,64,15)" rx="2" ry="2" />
<text  x="14.38" y="319.5" ></text>
</g>
<g >
<title>exc_page_fault (57,767,068,325 samples, 45.74%)</title><rect x="647.2" y="453" width="539.8" height="15.0" fill="rgb(234,225,48)" rx="2" ry="2" />
<text  x="650.23" y="463.5" >exc_page_fault</text>
</g>
<g >
<title>__mem_cgroup_charge (38,968,849 samples, 0.03%)</title><rect x="649.1" y="373" width="0.4" height="15.0" fill="rgb(247,146,40)" rx="2" ry="2" />
<text  x="652.09" y="383.5" ></text>
</g>
<g >
<title>release_pages (443,058,632 samples, 0.35%)</title><rect x="11.6" y="277" width="4.1" height="15.0" fill="rgb(243,132,47)" rx="2" ry="2" />
<text  x="14.57" y="287.5" ></text>
</g>
<g >
<title>__cond_resched (37,528,316 samples, 0.03%)</title><rect x="1000.6" y="357" width="0.3" height="15.0" fill="rgb(225,29,18)" rx="2" ry="2" />
<text  x="1003.58" y="367.5" ></text>
</g>
<g >
<title>main (125,621,379,050 samples, 99.47%)</title><rect x="15.7" y="485" width="1173.8" height="15.0" fill="rgb(205,67,31)" rx="2" ry="2" />
<text  x="18.75" y="495.5" >main</text>
</g>
<g >
<title>do_syscall_64 (16,259,390 samples, 0.01%)</title><rect x="10.1" y="437" width="0.2" height="15.0" fill="rgb(223,118,35)" rx="2" ry="2" />
<text  x="13.13" y="447.5" ></text>
</g>
<g >
<title>pci_read_config (52,032,598 samples, 0.04%)</title><rect x="1189.5" y="341" width="0.5" height="15.0" fill="rgb(214,54,18)" rx="2" ry="2" />
<text  x="1192.50" y="351.5" ></text>
</g>
<g >
<title>__memcg_kmem_charge_page (63,956,903 samples, 0.05%)</title><rect x="1185.9" y="325" width="0.6" height="15.0" fill="rgb(212,27,32)" rx="2" ry="2" />
<text  x="1188.86" y="335.5" ></text>
</g>
<g >
<title>clear_page_erms (36,521,609,196 samples, 28.92%)</title><rect x="650.1" y="309" width="341.2" height="15.0" fill="rgb(208,19,11)" rx="2" ry="2" />
<text  x="653.06" y="319.5" >clear_page_erms</text>
</g>
<g >
<title>sysvec_apic_timer_interrupt (235,777,938 samples, 0.19%)</title><rect x="1187.0" y="453" width="2.2" height="15.0" fill="rgb(233,178,44)" rx="2" ry="2" />
<text  x="1190.03" y="463.5" ></text>
</g>
<g >
<title>rcu_all_qs (84,221,149 samples, 0.07%)</title><rect x="1184.4" y="357" width="0.8" height="15.0" fill="rgb(246,18,22)" rx="2" ry="2" />
<text  x="1187.42" y="367.5" ></text>
</g>
<g >
<title>unmap_single_vma (495,602,210 samples, 0.39%)</title><rect x="11.1" y="357" width="4.6" height="15.0" fill="rgb(208,165,45)" rx="2" ry="2" />
<text  x="14.10" y="367.5" ></text>
</g>
<g >
<title>rmqueue_bulk (15,021,898 samples, 0.01%)</title><rect x="999.7" y="325" width="0.1" height="15.0" fill="rgb(253,198,44)" rx="2" ry="2" />
<text  x="1002.66" y="335.5" ></text>
</g>
<g >
<title>asm_exc_page_fault (57,804,759,147 samples, 45.77%)</title><rect x="646.9" y="469" width="540.1" height="15.0" fill="rgb(250,82,39)" rx="2" ry="2" />
<text  x="649.88" y="479.5" >asm_exc_page_fault</text>
</g>
<g >
<title>asm_sysvec_apic_timer_interrupt (13,087,195 samples, 0.01%)</title><rect x="649.9" y="309" width="0.2" height="15.0" fill="rgb(220,134,7)" rx="2" ry="2" />
<text  x="652.93" y="319.5" ></text>
</g>
<g >
<title>__sysvec_apic_timer_interrupt (101,102,514 samples, 0.08%)</title><rect x="990.3" y="261" width="1.0" height="15.0" fill="rgb(238,57,40)" rx="2" ry="2" />
<text  x="993.33" y="271.5" ></text>
</g>
<g >
<title>zap_huge_pmd (493,816,529 samples, 0.39%)</title><rect x="11.1" y="325" width="4.6" height="15.0" fill="rgb(243,40,25)" rx="2" ry="2" />
<text  x="14.11" y="335.5" ></text>
</g>
<g >
<title>get_page_from_freelist (37,475,567,906 samples, 29.67%)</title><rect x="649.6" y="341" width="350.2" height="15.0" fill="rgb(217,41,22)" rx="2" ry="2" />
<text  x="652.65" y="351.5" >get_page_from_freelist</text>
</g>
<g >
<title>__pagevec_lru_add (16,341,503 samples, 0.01%)</title><rect x="1185.4" y="341" width="0.1" height="15.0" fill="rgb(248,117,52)" rx="2" ry="2" />
<text  x="1188.39" y="351.5" ></text>
</g>
<g >
<title>__sysvec_apic_timer_interrupt (56,441,124 samples, 0.04%)</title><rect x="1180.8" y="309" width="0.5" height="15.0" fill="rgb(239,85,32)" rx="2" ry="2" />
<text  x="1183.81" y="319.5" ></text>
</g>
<g >
<title>clear_subpage (18,719,834 samples, 0.01%)</title><rect x="1185.2" y="373" width="0.2" height="15.0" fill="rgb(235,101,31)" rx="2" ry="2" />
<text  x="1188.21" y="383.5" ></text>
</g>
<g >
<title>do_user_addr_fault (57,753,042,196 samples, 45.73%)</title><rect x="647.2" y="437" width="539.7" height="15.0" fill="rgb(229,62,53)" rx="2" ry="2" />
<text  x="650.24" y="447.5" >do_user_addr_fault</text>
</g>
<g >
<title>memcpy_erms (13,665,586 samples, 0.01%)</title><rect x="1181.1" y="117" width="0.2" height="15.0" fill="rgb(231,210,35)" rx="2" ry="2" />
<text  x="1184.15" y="127.5" ></text>
</g>
<g >
<title>free_unref_page (11,085,786 samples, 0.01%)</title><rect x="11.2" y="293" width="0.1" height="15.0" fill="rgb(221,117,5)" rx="2" ry="2" />
<text  x="14.24" y="303.5" ></text>
</g>
<g >
<title>console_unlock (195,758,664 samples, 0.16%)</title><rect x="1187.2" y="277" width="1.8" height="15.0" fill="rgb(234,168,40)" rx="2" ry="2" />
<text  x="1190.19" y="287.5" ></text>
</g>
<g >
<title>new_sync_read (53,778,700 samples, 0.04%)</title><rect x="1189.5" y="389" width="0.5" height="15.0" fill="rgb(215,23,9)" rx="2" ry="2" />
<text  x="1192.49" y="399.5" ></text>
</g>
<g >
<title>uncharge_batch (14,415,642 samples, 0.01%)</title><rect x="11.8" y="197" width="0.2" height="15.0" fill="rgb(254,138,41)" rx="2" ry="2" />
<text  x="14.84" y="207.5" ></text>
</g>
<g >
<title>charge_memcg (24,623,040 samples, 0.02%)</title><rect x="649.1" y="357" width="0.2" height="15.0" fill="rgb(222,180,53)" rx="2" ry="2" />
<text  x="652.09" y="367.5" ></text>
</g>
<g >
<title>alloc_pages (99,162,234 samples, 0.08%)</title><rect x="1185.8" y="357" width="0.9" height="15.0" fill="rgb(231,74,44)" rx="2" ry="2" />
<text  x="1188.81" y="367.5" ></text>
</g>
<g >
<title>__put_compound_page (441,990,457 samples, 0.35%)</title><rect x="11.6" y="261" width="4.1" height="15.0" fill="rgb(239,217,7)" rx="2" ry="2" />
<text  x="14.58" y="271.5" ></text>
</g>
<g >
<title>get_mem_cgroup_from_mm (13,208,860 samples, 0.01%)</title><rect x="649.3" y="357" width="0.1" height="15.0" fill="rgb(226,160,33)" rx="2" ry="2" />
<text  x="652.32" y="367.5" ></text>
</g>
<g >
<title>prb_read_valid (74,950,323 samples, 0.06%)</title><rect x="990.4" y="85" width="0.7" height="15.0" fill="rgb(247,16,23)" rx="2" ry="2" />
<text  x="993.45" y="95.5" ></text>
</g>
<g >
<title>clear_huge_page (19,839,471,011 samples, 15.71%)</title><rect x="999.8" y="373" width="185.4" height="15.0" fill="rgb(241,204,0)" rx="2" ry="2" />
<text  x="1002.84" y="383.5" >clear_huge_page</text>
</g>
<g >
<title>get_page_from_freelist (20,008,523 samples, 0.02%)</title><rect x="1186.5" y="325" width="0.2" height="15.0" fill="rgb(241,0,28)" rx="2" ry="2" />
<text  x="1189.50" y="335.5" ></text>
</g>
<g >
<title>page_counter_try_charge (27,773,086 samples, 0.02%)</title><rect x="1186.0" y="293" width="0.3" height="15.0" fill="rgb(253,150,8)" rx="2" ry="2" />
<text  x="1189.00" y="303.5" ></text>
</g>
<g >
<title>wake_up_klogd_work_func (202,642,811 samples, 0.16%)</title><rect x="1187.2" y="293" width="1.9" height="15.0" fill="rgb(249,135,54)" rx="2" ry="2" />
<text  x="1190.18" y="303.5" ></text>
</g>
<g >
<title>pci_user_read_config_dword (51,510,189 samples, 0.04%)</title><rect x="1189.5" y="325" width="0.5" height="15.0" fill="rgb(249,0,11)" rx="2" ry="2" />
<text  x="1192.51" y="335.5" ></text>
</g>
<g >
<title>__GI___openat64 (16,594,767 samples, 0.01%)</title><rect x="10.1" y="469" width="0.2" height="15.0" fill="rgb(234,53,8)" rx="2" ry="2" />
<text  x="13.13" y="479.5" ></text>
</g>
<g >
<title>free_compound_page (414,766,227 samples, 0.33%)</title><rect x="11.8" y="229" width="3.9" height="15.0" fill="rgb(207,139,28)" rx="2" ry="2" />
<text  x="14.83" y="239.5" ></text>
</g>
<g >
<title>release_pages (61,472,217 samples, 0.05%)</title><rect x="10.5" y="325" width="0.6" height="15.0" fill="rgb(231,150,3)" rx="2" ry="2" />
<text  x="13.52" y="335.5" ></text>
</g>
<g >
<title>ksys_read (53,954,998 samples, 0.04%)</title><rect x="1189.5" y="421" width="0.5" height="15.0" fill="rgb(222,29,38)" rx="2" ry="2" />
<text  x="1192.49" y="431.5" ></text>
</g>
<g >
<title>free_pcp_prepare (53,894,878 samples, 0.04%)</title><rect x="10.6" y="245" width="0.5" height="15.0" fill="rgb(212,172,12)" rx="2" ry="2" />
<text  x="13.58" y="255.5" ></text>
</g>
<g >
<title>do_sys_openat2 (16,173,468 samples, 0.01%)</title><rect x="10.1" y="389" width="0.2" height="15.0" fill="rgb(233,116,45)" rx="2" ry="2" />
<text  x="13.13" y="399.5" ></text>
</g>
<g >
<title>handle_mm_fault (57,736,444,873 samples, 45.72%)</title><rect x="647.3" y="421" width="539.5" height="15.0" fill="rgb(207,104,26)" rx="2" ry="2" />
<text  x="650.33" y="431.5" >handle_mm_fault</text>
</g>
<g >
<title>pte_alloc_one (112,349,731 samples, 0.09%)</title><rect x="1185.7" y="373" width="1.0" height="15.0" fill="rgb(211,193,43)" rx="2" ry="2" />
<text  x="1188.69" y="383.5" ></text>
</g>
<g >
<title>prb_read_valid (43,291,998 samples, 0.03%)</title><rect x="1180.9" y="133" width="0.4" height="15.0" fill="rgb(208,52,22)" rx="2" ry="2" />
<text  x="1183.87" y="143.5" ></text>
</g>
<g >
<title>__handle_mm_fault (57,719,091,942 samples, 45.70%)</title><rect x="647.5" y="405" width="539.3" height="15.0" fill="rgb(244,135,1)" rx="2" ry="2" />
<text  x="650.46" y="415.5" >__handle_mm_fault</text>
</g>
<g >
<title>get_data.isra.0 (16,534,944 samples, 0.01%)</title><rect x="1188.4" y="229" width="0.1" height="15.0" fill="rgb(249,204,7)" rx="2" ry="2" />
<text  x="1191.39" y="239.5" ></text>
</g>
<g >
<title>raw_pci_read (50,552,050 samples, 0.04%)</title><rect x="1189.5" y="293" width="0.5" height="15.0" fill="rgb(236,139,27)" rx="2" ry="2" />
<text  x="1192.52" y="303.5" ></text>
</g>
<g >
<title>__alloc_pages (95,579,575 samples, 0.08%)</title><rect x="1185.8" y="341" width="0.9" height="15.0" fill="rgb(253,77,4)" rx="2" ry="2" />
<text  x="1188.82" y="351.5" ></text>
</g>
<g >
<title>alloc_pages_vma (37,499,830,075 samples, 29.69%)</title><rect x="649.5" y="373" width="350.3" height="15.0" fill="rgb(226,45,25)" rx="2" ry="2" />
<text  x="652.46" y="383.5" >alloc_pages_vma</text>
</g>
<g >
<title>__munmap (558,058,422 samples, 0.44%)</title><rect x="10.5" y="485" width="5.2" height="15.0" fill="rgb(207,207,5)" rx="2" ry="2" />
<text  x="13.51" y="495.5" ></text>
</g>
<g >
<title>lru_cache_add_inactive_or_unevictable (17,909,623 samples, 0.01%)</title><rect x="1185.4" y="373" width="0.2" height="15.0" fill="rgb(243,93,54)" rx="2" ry="2" />
<text  x="1188.39" y="383.5" ></text>
</g>
<g >
<title>tlb_flush_mmu (444,661,552 samples, 0.35%)</title><rect x="11.6" y="309" width="4.1" height="15.0" fill="rgb(235,135,6)" rx="2" ry="2" />
<text  x="14.57" y="319.5" ></text>
</g>
<g >
<title>update_process_times (90,568,740 samples, 0.07%)</title><rect x="990.4" y="181" width="0.8" height="15.0" fill="rgb(209,101,38)" rx="2" ry="2" />
<text  x="993.40" y="191.5" ></text>
</g>
<g >
<title>do_syscall_64 (53,954,998 samples, 0.04%)</title><rect x="1189.5" y="453" width="0.5" height="15.0" fill="rgb(219,221,5)" rx="2" ry="2" />
<text  x="1192.49" y="463.5" ></text>
</g>
<g >
<title>__x64_sys_munmap (558,058,422 samples, 0.44%)</title><rect x="10.5" y="437" width="5.2" height="15.0" fill="rgb(228,141,51)" rx="2" ry="2" />
<text  x="13.51" y="447.5" ></text>
</g>
<g >
<title>entry_SYSCALL_64 (16,522,460 samples, 0.01%)</title><rect x="10.1" y="453" width="0.2" height="15.0" fill="rgb(231,201,21)" rx="2" ry="2" />
<text  x="13.13" y="463.5" ></text>
</g>
<g >
<title>free_unref_page (398,395,786 samples, 0.32%)</title><rect x="12.0" y="213" width="3.7" height="15.0" fill="rgb(218,140,44)" rx="2" ry="2" />
<text  x="14.98" y="223.5" ></text>
</g>
<g >
<title>free_transhuge_page (423,854,242 samples, 0.34%)</title><rect x="11.7" y="245" width="4.0" height="15.0" fill="rgb(250,155,11)" rx="2" ry="2" />
<text  x="14.75" y="255.5" ></text>
</g>
<g >
<title>lru_cache_add (17,740,518 samples, 0.01%)</title><rect x="1185.4" y="357" width="0.2" height="15.0" fill="rgb(224,160,3)" rx="2" ry="2" />
<text  x="1188.39" y="367.5" ></text>
</g>
<g >
<title>__x64_sys_read (53,954,998 samples, 0.04%)</title><rect x="1189.5" y="437" width="0.5" height="15.0" fill="rgb(239,100,45)" rx="2" ry="2" />
<text  x="1192.49" y="447.5" ></text>
</g>
<g >
<title>prb_read_valid (188,615,433 samples, 0.15%)</title><rect x="1187.2" y="261" width="1.8" height="15.0" fill="rgb(225,202,44)" rx="2" ry="2" />
<text  x="1190.25" y="271.5" ></text>
</g>
<g >
<title>free_compound_page (57,641,019 samples, 0.05%)</title><rect x="10.6" y="277" width="0.5" height="15.0" fill="rgb(235,173,7)" rx="2" ry="2" />
<text  x="13.55" y="287.5" ></text>
</g>
<g >
<title>sync_regs (17,992,778 samples, 0.01%)</title><rect x="1189.3" y="469" width="0.2" height="15.0" fill="rgb(206,188,3)" rx="2" ry="2" />
<text  x="1192.32" y="479.5" ></text>
</g>
<g >
<title>__x64_sys_openat (16,173,468 samples, 0.01%)</title><rect x="10.1" y="421" width="0.2" height="15.0" fill="rgb(205,21,35)" rx="2" ry="2" />
<text  x="13.13" y="431.5" ></text>
</g>
<g >
<title>tick_sched_timer (97,419,463 samples, 0.08%)</title><rect x="990.3" y="213" width="0.9" height="15.0" fill="rgb(218,211,27)" rx="2" ry="2" />
<text  x="993.34" y="223.5" ></text>
</g>
</g>
</svg>
